<?xml version="1.0" encoding="utf-8"?>
<!-- Generator: Adobe Illustrator 24.2.0, SVG Export Plug-In . SVG Version: 6.00 Build 0)  -->
<svg version="1.1" xmlns="http://www.w3.org/2000/svg" xmlns:xlink="http://www.w3.org/1999/xlink" x="0px" y="0px"
	 viewBox="0 0 419.23 585.05" style="enable-background:new 0 0 419.23 585.05;" xml:space="preserve">
<style type="text/css">
	.st0{fill:#1D1D1B;}
	.st1{fill:#FFFFFF;}
	.st2{display:none;fill:#FFFFFF;}
	.st3{fill:#D8D7D2;}
	.st4{fill:none;stroke:#1D1D1B;stroke-miterlimit:10;}
</style>
<g id="BACKGROUND">
</g>
<g id="OBJECTS">
	<g>
		<g>
			<g>
				<path class="st0" d="M133.77,36.34c0,0,0-0.01,0-0.01c-0.46-0.68-1.19-1.28-1.78-1.92c0.34-0.24,0.31-0.48,0.03-0.81
					c-0.58-0.7-0.88-1.43-1.54-2.11c-1.26-1.32-3.58-1.41-6.43-1.73c-0.12-0.01-0.25-0.02-0.39-0.01c-0.76-0.68-1.58-1.35-2.76-1.97
					c-1.42-0.75-1.88-1.32-4.31-1.32c-2.18-0.01-4.27,0.68-6.09,1.11c-0.02,0-0.03,0-0.05,0c-0.16,0-0.32,0.02-0.46,0.04
					c-3.31-0.36-6.51-0.55-8.76,0.64c-0.1,0.02-0.19,0.05-0.26,0.08c-1.73,0.77-4.7,1.45-7.27,1.34c-0.33-0.01-0.7,0.03-1.02,0.11
					c-0.34,0-0.67,0.01-1,0.02c-0.24-0.02-0.52-0.03-0.81,0.01c-0.1,0.01-0.18,0.03-0.27,0.04c-1.98,0.13-3.59,0.52-4.07,1.67
					c-0.04,0.09,0.01,0.15,0.09,0.2c-0.02,0.02-0.04,0.04-0.04,0.06c-0.25,0.77,0.32,1.44,1.09,2.13c0.07,0.06,0.17,0.11,0.3,0.14
					c0.01,0.01,0.02,0.01,0.03,0.02c-0.68,0.53-1.33,1.1-1.6,1.68c-0.12,0.06-0.21,0.12-0.23,0.19c-0.43,1.2,0.11,2.49,0.74,3.66
					c0.02,0.05,0.07,0.08,0.13,0.12c0.17,0.29,0.39,0.56,0.66,0.82c0.13,0.59,0.66,1.14,1.06,1.7c0.06,0.09,0.21,0.14,0.38,0.19
					c0.24,0.42,0.73,0.81,1.15,1.21c0.04,0.04,0.15,0.06,0.28,0.06c0.09,0.07,0.18,0.15,0.26,0.22c0.15,0.23,0.34,0.45,0.38,0.69
					c0,0.02,0.04,0.03,0.08,0.04c0.02,0.11,0.05,0.22,0.07,0.32c0.03,0.2,0.94,0.14,0.92-0.03c-0.06-0.46-0.2-0.92-0.31-1.38
					c-0.01-0.04-0.07-0.07-0.15-0.08c0-0.22,0.02-0.44,0.04-0.65c0.05-0.1,0.09-0.21,0.14-0.31c0.23-0.01,0.49-0.06,0.54-0.15
					c0.17-0.29,0.39-0.58,0.59-0.87c0.01-0.01,0.03-0.01,0.04-0.01c0.37-0.21,0.45-0.48,0.44-0.75c0.01-0.04,0.01-0.08,0.02-0.11
					c0.13-0.04,0.2-0.09,0.11-0.15c-0.04-0.03-0.08-0.05-0.12-0.08c0,0,0-0.01,0-0.01c0,0,0.01-0.01,0.01-0.01
					c0-0.01-0.01-0.01-0.01-0.02c-0.01-0.05-0.02-0.1-0.04-0.15c0-0.01-0.03-0.02-0.07-0.03c-0.02-0.03-0.04-0.05-0.06-0.08
					c0.01-0.02,0.03-0.03,0.04-0.05c0.03-0.06-0.05-0.09-0.17-0.11c-0.28-0.3-0.7-0.57-1.08-0.85c-0.07-0.11-0.11-0.22-0.17-0.32
					c0.18-0.03,0.33-0.09,0.28-0.17c-0.19-0.31-0.35-0.61-0.51-0.91c0.66-0.54,1.56-1.01,2.4-1.51c1.1-0.65,2.02-0.68,3.52-0.98
					c3.83-0.74,7.26-1.28,11.52-1.36c3.18-0.06,6.26-0.2,9.39-0.06c0.04,0.03,0.12,0.05,0.26,0.06c1,0.07,1.95,0.19,2.88,0.34
					c1.2,0.41,2.57,0.77,3.84,1.12c1.05,0.29,2.45,0.67,3.29,1.15c0.17,0.29,0.25,0.6,0.2,0.97c-0.01,0.07-0.04,0.13-0.06,0.2
					c-0.25,0.04-0.46,0.08-0.58,0.13c-0.17,0.08-0.31,0.15-0.44,0.23c-1.18,0.66-1.13,1.06-0.48,1.95c0.07,0.09,0.29,0.14,0.57,0.16
					c0.42,0.45,0.92,0.9,1.18,1.32c0.04,0.06,0.14,0.1,0.28,0.13c-0.02,0.05-0.04,0.11-0.06,0.16c-0.04,0.08,0.09,0.14,0.3,0.16
					c-0.04,0.02-0.08,0.04-0.07,0.06c0.04,0.2,0.03,0.4,0.18,0.59c0.04,0.13,0.07,0.27,0.08,0.4c0,0,0,0,0,0
					c0,0.03-0.01,0.07-0.01,0.1c0,0.18,0.91,0.11,0.92-0.04c0-0.14,0.01-0.29,0.02-0.43c0.13-0.03,0.23-0.06,0.23-0.11
					c-0.03-0.1-0.05-0.2-0.05-0.3c0.03-0.01,0.06-0.02,0.07-0.03c0.15-0.11,0.24-0.22,0.3-0.34c0.38-0.07,0.69-0.16,0.73-0.26
					c0.11-0.25,0.2-0.5,0.28-0.75c0.37-0.05,0.7-0.14,0.84-0.26c0.31-0.26,0.48-0.53,0.59-0.82c0.29-0.06,0.52-0.14,0.61-0.23
					C135.41,38.51,134.77,37.3,133.77,36.34z"/>
				<path class="st1" d="M188.63,82.68c-1.7-1.57-2.49-3.15-3.04-4.86c-0.62-1.92-2.39-3.65-4.65-5.31
					c-1.87-2.15-4.49-4.08-9.07-5.39c-5.73-1.64-12.3-2.33-18.83-3.12c-7.11-0.86-13.99-2.24-20.79-3.45
					c-3.37-0.6-9.62,1.47-4.8,2.33c1.1,0.2,2.21,0.4,3.32,0.6c-2.02,1.57-4.16,3.11-6.44,4.61c-0.62,0.27-1.25,0.54-1.92,0.79
					c-2.18-2.42-5.63-4.43-12.65-4.49c-2.71-0.02-6.2,1.63-3.61,2.38c-0.02,0.02-0.05,0.04-0.07,0.07
					c-0.25,0.42-0.26,0.78-0.66,1.19c-0.08,0.09-0.17,0.17-0.25,0.26c-0.13-0.06-0.26-0.12-0.38-0.18c-3.08-1.5-7.67-3.75-7.51-5.89
					c0.06-0.79-1.93-1.02-3.97-0.89c-1.22-0.07-2.6,0.07-3.6,0.25c-2.69,0.47-4.61,1.34-6.85,2.1c-2.91,0.99-6.54,1.63-9.52,2.62
					c-2.5,0.84-5.52,1.22-8.12,2c-2.31,0.21-4.29,0.83-6.09,1.55c-1.15,0.1-2.21,0.31-2.79,0.65c-3.8,2.21-5.83,4.69-6.89,7.29
					c-0.16,0.07-0.3,0.14-0.4,0.21c-2.31,1.75-2.78,4.1-1.87,6.08c-0.61,0.17-1.06,0.37-1.21,0.59c-0.16,0.25-0.32,0.51-0.47,0.76
					c-0.34,0.13-0.62,0.28-0.63,0.43c-0.04,0.41-0.26,0.8-0.55,1.18c-0.25,0.33,0.22,0.51,0.9,0.61c0.57,0.23,1.63,0.26,2.61,0.23
					c0.2,0.1,0.44,0.19,0.73,0.28c1.19,0.36,2.89,0.33,4.33,0.12c0.22,0.03,0.44,0.06,0.65,0.1c1.02,0.16,2,0.36,2.99,0.54
					c0.97,0.18,2.18,0.15,3.3,0c0.04,0.01,0.09,0.02,0.13,0.03c2.31,0.75,4.48,1.59,6.62,2.35c0.24,0.31,0.51,0.61,0.82,0.91
					c1.07,1.96,3.76,3.88,5.42,5.75c0.53,0.6,1.08,1.19,1.62,1.78c-1.18,2.65-0.41,5.47-1.12,8.19c-0.26,0.11-0.46,0.22-0.55,0.34
					c-2.23,3.09-3.54,6.28-4.69,9.47c-0.1,0.28,0.31,0.45,0.99,0.53c-0.57,1.03-0.67,2.1-0.46,3.16c-1.24,0.75-1.1,1.72-0.74,2.85
					c0.14,0.43,0.32,0.87,0.53,1.31c-0.66,2.79,2.16,5.97,6.65,8c0.11,0.6,1.34,1.16,2.51,1.58c0.07,0.05,0.15,0.1,0.25,0.14
					c3.11,1.57,7.81,2.59,12.59,2.8c0.26,0.01,0.53,0.01,0.8,0.01c4.36,0.42,8.76,0.74,13.23,0.86c0.45,0.01,0.91,0,1.38-0.03
					c4.7,0.47,9.48,0.54,14.3,0.65c1.65,0.04,3.71-0.18,4.89-0.74c6.4,0.39,12.87,0.34,18.84-0.83c0.14-0.03,0.39-0.09,0.66-0.16
					c2.96-0.17,5.82-0.53,8.41-1.2c1.33-0.34,1.12-0.7-0.44-0.71c-1.17-0.01-2.44,0.08-3.63,0.25c-0.08,0-0.15-0.01-0.24-0.01
					c-0.25-0.01-0.5-0.01-0.76-0.02c1.37-0.33,1-0.46-0.02-0.49c0.02-0.01,0.03-0.01,0.05-0.02c0.84-0.13,1.52-0.27,1.81-0.43
					c2.64-1.4,5.5-2.8,6.34-4.61c0,0,0.01-0.01,0.01-0.01c0,0,0,0-0.01,0c0.02-0.05,0.06-0.09,0.08-0.14
					c0.01-0.04-0.03-0.06-0.11-0.08c0.5-0.43,0.98-0.87,1.42-1.32c0.49-0.5,0.85-1.02,1.15-1.55c0.61-0.67,1.19-1.34,1.76-2.02
					c0.48-0.56,0.97-1.15,1.26-1.75c0.25-0.31,0.46-0.62,0.64-0.94c0.5-0.92,0.6-3.84,1.98-4.19c1.3-0.33,1.16-0.66-0.41-0.65
					c-0.52,0-1.06,0.02-1.6,0.06c0.13-0.16,0.26-0.32,0.39-0.48c0.11-0.05,0.22-0.09,0.31-0.14c1.29-0.72,2.44-1.39,2.72-2.32
					c0.12-0.39-0.1-0.81-0.15-1.21c-0.01-0.06,0-0.12,0-0.18c0.33-0.19,0.57-0.4,0.63-0.63c0.16-0.63-0.89-0.97-2.11-1.12
					c-3.43-2.6-4.07-6.31-4.61-9.34c0.2-0.84,0.38-1.68,0.5-2.52c0.04-0.31,0.06-0.63,0.05-0.94c0.01-0.02,0.04-0.03,0.04-0.05
					c1.37-3.46,1.31-6.93,1.19-10.42c1.88-0.34,3.72-0.8,5.46-1.16c2.06-0.43,4.13-0.86,6.23-1.26c0.69-0.13,1.4-0.27,2.11-0.38
					c0.4-0.06,0.81-0.12,1.23-0.17c2.05,0.15,4.65-0.35,5.63-1.01c0.43-0.08,0.86-0.17,1.28-0.26c0.05-0.01,0.09-0.02,0.14-0.03
					C185.94,84.49,189.66,83.64,188.63,82.68z M90.27,134.7c0.14,0,0.28,0.01,0.42,0.01c0.1,0,0.2,0,0.3-0.01
					c0.54,0.15,1.09,0.29,1.66,0.42C91.84,135,91.05,134.86,90.27,134.7z"/>
				<path class="st1" d="M77.31,229.43c-0.23-0.3-2.13-0.08-2.6,0.17c-0.31-0.02-0.7,0-1.08,0.05c-0.03-0.04-0.04-0.08-0.07-0.12
					c-0.04-0.06-0.17-0.1-0.34-0.12c-0.08-0.26-0.13-0.53-0.13-0.79c0-0.11-0.71-0.12-1.4-0.05c0-0.02-0.01-0.03-0.01-0.05
					c-0.03-0.16-0.84-0.16-1.56-0.07c-0.03-0.11-0.05-0.22-0.08-0.33c-0.05-0.17-0.9-0.16-1.63-0.07c0-0.01,0-0.02-0.01-0.03
					c-0.04-0.19-1.07-0.16-1.85-0.02c-0.01-0.03-0.01-0.05-0.02-0.08c-0.05-0.15-0.52-0.16-1.05-0.12
					c-0.74,0.03-1.62,0.19-1.67,0.37c-0.29,0.32-0.51,0.64-0.7,0.97c-0.12,0.04-0.21,0.09-0.23,0.13c-0.51,0.9-1.08,1.79-1.41,2.71
					c-0.04,0.12,0.17,0.17,0.5,0.18c-0.01,0.09-0.03,0.19-0.04,0.28c-0.01,0.1,0.28,0.13,0.67,0.12c-0.26,0.72-0.46,1.45-0.44,2.19
					c0.01,0.33,2.49-0.02,2.72-0.25c0.39-0.4,0.66-0.81,0.86-1.23c0.06-0.01,0.12-0.02,0.17-0.03c0,0.06,0,0.13,0,0.19
					c0,0.19,1.15,0.14,1.96,0.01c0.04,0.2,0.09,0.4,0.15,0.59c0.06,0.19,1.02,0.16,1.78,0.04c0.09,0.32,0.2,0.64,0.33,0.96
					c0.08,0.19,1.07,0.16,1.83,0.04c0.01,0.22,0.03,0.44,0.05,0.66c0.03,0.28,2.74,0.06,2.73-0.31c-0.01-0.3-0.03-0.61-0.06-0.91
					c0-0.02,0-0.04,0-0.07c0.52-0.03,1.11-0.11,1.44-0.23c0.6-0.06,1.16-0.19,1.19-0.33C77.63,232.43,78.43,230.88,77.31,229.43z"/>
				<path class="st1" d="M174.1,229.23c-0.26-0.3-2.36-0.1-2.68,0.18c-0.72-0.12-2.22,0.1-2.38,0.38c-0.26,0.01-0.53,0.03-0.77,0.07
					c-0.01-0.01-0.02-0.02-0.03-0.03c-0.26-0.23-1.57-0.17-2.27,0.01c-0.42-0.54-0.83-1.08-1.24-1.62
					c-0.27-0.36-2.98-0.03-2.73,0.31c0.17,0.23,0.34,0.46,0.52,0.68c-0.17,0.07-0.28,0.14-0.28,0.22c0,0.12,0.02,0.23,0.04,0.35
					c-0.43,0.09-0.76,0.21-0.74,0.35c0,0.03,0.01,0.05,0.02,0.08c-0.04-0.03-0.06-0.06-0.1-0.09c-0.18-0.15-0.73-0.17-1.28-0.13
					c-0.04-0.06-0.08-0.11-0.13-0.17c-0.15-0.18-0.87-0.19-1.53-0.11c-0.79-0.08-2.56,0.09-2.37,0.43c0.07,0.12,0.16,0.24,0.23,0.37
					c0,0.01-0.01,0.02,0,0.03c0.44,0.97,1.23,1.89,1.94,2.83c0.32,0.5,0.67,1,1.11,1.49c0.19,0.21,1.12,0.19,1.85,0.06
					c0.44,0.5,0.99,0.98,1.75,1.4c0.46,0.25,2.46-0.01,2.63-0.3c0.3-0.51,0.42-1.02,0.44-1.54c0.07-0.01,0.13-0.01,0.2-0.02
					c0.14,0.23,0.27,0.46,0.39,0.69c0.19,0.35,2.92,0.05,2.73-0.31c-0.11-0.22-0.22-0.43-0.34-0.65c0.25-0.08,0.39-0.17,0.34-0.26
					c-0.03-0.06-0.07-0.12-0.1-0.17c0.66-0.08,1.29-0.24,1.27-0.43c-0.02-0.15-0.04-0.29-0.07-0.44c0.61-0.02,1.3-0.15,1.58-0.31
					c0.25-0.02,0.52-0.06,0.75-0.1c0.8,0.03,2.19-0.16,2.19-0.45C175.02,231.06,174.89,230.15,174.1,229.23z"/>
				<g>
					<path class="st2" d="M80.93,137.42c0.01-0.12-0.11-0.19-0.3-0.23c-0.08-0.08-0.17-0.17-0.29-0.26
						c-0.58-0.42-1.32-0.83-2.12-1.23c-0.13-0.18-0.39-0.38-0.84-0.6c-0.12-0.06-0.33-0.09-0.59-0.1c-0.22-0.11-0.45-0.21-0.67-0.32
						c-0.7-0.44-1.5-0.85-2.51-1.2c0,0-0.01,0-0.01,0c0.33-0.11,0.63-0.28,0.3-0.42c-0.28-0.12-0.54-0.26-0.8-0.39
						c0.03-0.03,0.03-0.05-0.01-0.07c-0.85-0.38-1.59-0.79-2.25-1.22c0.81-0.07,1.67-0.28,1.48-0.41c-3.11-2.16-4.02-4.62-4.56-7.11
						c-0.01-0.07-0.19-0.11-0.44-0.12c-0.08-1.06-0.03-2.15,0.09-3.22c0.32-0.08,0.54-0.17,0.52-0.29
						c-0.06-0.29-0.19-0.57-0.35-0.85c0.02-0.12,0.04-0.24,0.06-0.36c0.54-0.1,0.94-0.29,0.79-0.53c-0.17-0.29-0.36-0.57-0.54-0.86
						c0.02-0.08,0.03-0.17,0.05-0.26c0.04-0.17-0.15-0.28-0.43-0.35c-0.72-1.14-1.44-2.29-2.09-3.44c0.07-1.08-0.34-2.16-0.44-3.24
						c-0.06-0.64-0.08-1.28-0.1-1.92c0.07-0.59,0.15-1.18,0.23-1.76c0.04-0.02,0.07-0.04,0.09-0.06c1.16-1.28,1.25-2.64,1.6-4
						c0.16-0.06,0.26-0.14,0.26-0.22c0-0.24-0.01-0.47-0.01-0.71c0.16-0.6,0.27-1.2,0.36-1.81c0.17-0.05,0.3-0.11,0.32-0.17
						c0.93-2.13,0.72-4.28,0.69-6.43c0.01-0.03,0.02-0.06,0-0.09c-0.24-0.38-0.65-0.74-0.98-1.11c0.79-0.11,1.54-0.31,1.24-0.4
						c-1.6-0.44-3.17-0.92-4.89-1.27c-0.77-0.16-1.56-0.3-2.35-0.45c-1.98-0.51-3.99-1-5.98-1.5c-0.54-0.14-1.68,0.01-2.2,0.22
						c-0.88-0.17-1.77-0.32-2.67-0.45c-0.22-0.03-0.59-0.01-0.98,0.04c-0.79-0.08-2.46,0.16-2.33,0.45c0.16,0.36,0.29,0.73,0.41,1.1
						c-0.25,0.08-0.42,0.19-0.42,0.32c-0.04,3.97-0.67,7.93-1.35,11.89c0,0.01,0,0.02,0,0.03c-1.27,1.82-1.05,4-0.56,6.08
						c-0.05,0.03-0.08,0.06-0.1,0.09c-0.42,0.83-0.12,1.7-0.04,2.55c0.12,1.18,0.19,2.37,0.2,3.55c0,0.08,0.17,0.13,0.41,0.15
						c-0.18,0.68-0.02,1.35,0.3,2.01c-0.02,0.61-0.03,1.21-0.04,1.82c0,0.23,0.54,0.3,1.14,0.28c0.1,0.15,0.2,0.31,0.29,0.46
						c0.28,0.48,0.64,0.94,1.1,1.38c0.38,0.87,1.33,1.67,2.11,2.51c0.54,0.59,1.08,1.18,1.59,1.77c0.19,0.44,0.45,0.86,0.74,1.28
						c-0.18,0.07-0.27,0.15-0.2,0.23c1.58,1.86,3.88,3.58,5.83,5.37c0.09,0.26,0.2,0.52,0.31,0.78c-0.2,0.96-0.01,2,0.96,2.85
						c0.01,0.01,0.04,0.02,0.06,0.03c0.13,0.3,0.35,0.6,0.64,0.9c-0.19,0.06-0.32,0.13-0.35,0.22c-0.47,1.35,0.44,2.66,1.88,3.85
						c0.09,0.07,0.23,0.11,0.39,0.14c0.02,0.02,0.04,0.03,0.06,0.05c-0.07,0.19-0.01,0.37,0.16,0.54c-0.32,0.25-0.23,0.54,0.67,0.76
						c0.04,0.04,0.12,0.07,0.26,0.11c0.12,0.03,0.24,0.06,0.36,0.09c-0.01,0.07,0.07,0.13,0.27,0.18c0.16,0.04,0.3,0.08,0.45,0.11
						c0.01,0,0.03,0.01,0.05,0.01c1.03,0.23,1.92,0.26,2.9,0.14c0.33,0,0.66,0,0.98-0.02c0.37,0.05,0.88,0.06,1.33-0.02
						c0.23-0.02,0.45-0.04,0.68-0.06c0.2,0,0.39-0.01,0.54-0.02l1.26-0.14c0.79-0.08,1.2-0.31,1.05-0.46
						c0.81-0.2,1.57-0.42,2.26-0.7c0.08-0.01,0.15-0.02,0.18-0.03c0.98-0.24,1.41-0.55,1.78-0.9c0.09-0.02,0.17-0.05,0.22-0.07
						c0.02-0.01,0.04-0.02,0.07-0.04c0.11-0.03,0.2-0.07,0.25-0.1c0.06-0.05,0.13-0.09,0.19-0.13c0.29-0.17,0.55-0.34,0.75-0.54
						c0.09-0.06,0.12-0.11,0.11-0.15c0.42-0.06,0.78-0.16,0.89-0.27c0.18-0.06,0.31-0.13,0.35-0.2
						C80.87,138.15,80.98,137.79,80.93,137.42z"/>
					<path class="st1" d="M186.39,106.55c0.03-0.03,0.05-0.06,0.05-0.09c-0.1-0.71-0.14-1.42-0.16-2.12
						c0.01-0.18,0.01-0.36,0.02-0.54c0.19-0.07,0.32-0.16,0.32-0.27c0.02-0.64-0.01-1.29-0.06-1.93c0.32-1.71,0.73-3.42,1.05-5.14
						c0.02-0.1-0.13-0.17-0.36-0.2c-0.33-0.9-0.82-1.79-1.06-2.7c0.18-0.07,0.28-0.14,0.24-0.22c-0.15-0.32-0.32-0.63-0.49-0.94
						c-0.11-0.63-0.19-1.26-0.27-1.88c0.06-0.05,0.09-0.09,0.08-0.14c-0.19-0.97-0.49-1.93-0.68-2.9c-0.12-0.66,0.07-1.35-0.19-2.01
						c0.24-0.15,0.23-0.31-0.21-0.37c-0.04-0.05-0.07-0.1-0.11-0.15c-0.31-0.35-2.27-0.15-2.65,0.16c-0.04,0.02-0.07,0.04-0.1,0.06
						c-0.12,0.01-0.24,0.02-0.36,0.04c-0.1,0-0.2,0-0.31,0c-1.81,0.11-3.5,0.55-5.09,1c-1.36,0.17-2.77,0.31-4.09,0.53
						c-3.22,0.54-6.15,1.19-8.95,2.05c-0.48-0.26-2.77,0.02-2.65,0.38c0.03,0.09,0.07,0.19,0.11,0.28c-0.07,0.05-0.12,0.1-0.11,0.15
						c-0.04,0.18,0.05,0.35,0.25,0.51c0.29,1.11,0.65,2.21,1.01,3.32c0.21,1.89,0.65,3.76,1.33,5.63c0.02,1.26,0.23,2.51,0.93,3.74
						c0.02,0.06,0.06,0.13,0.09,0.19c0.04,0.14,0.1,0.27,0.15,0.41c0,1.22,0.97,2.5,2,3.71c0.06,0.09,0.11,0.17,0.17,0.26
						c0.02,0.03,0.06,0.05,0.1,0.07c0.26,0.87,0.53,1.74,0.75,2.61c0.02,0.08,0.11,0.14,0.23,0.19c-0.53,0.06-1,0.15-1.06,0.27
						c-1.23,2.19-2.89,4.34-4.18,6.53c-0.56,0.6-1.08,1.21-1.56,1.82c-0.2,0.07-0.34,0.15-0.38,0.24c-0.1,0.22-0.19,0.44-0.29,0.67
						c-1.24,1.78-2.05,3.6-2.18,5.46c-0.45,0.08-0.83,0.22-0.92,0.39c-1.14,2.07-2.57,4.1-3.58,6.18c-0.89,1.02-1.8,2.03-2.75,3.04
						c-0.61,0.36-1.25,0.71-1.97,1.03c-0.54,0.02-1.14,0.08-1.37,0.17c-1.32,0.47-2.76,0.89-4.04,1.38
						c-1.2,0.46-2.28,0.96-3.57,1.38c-0.51,0.16-0.32,0.25,0.06,0.29c0.13,0.1,0.28,0.18,0.44,0.26c0.08,0.15,0.46,0.3,1.27,0.48
						c0.06,0.07,0.22,0.13,0.52,0.18c0.23,0.04,0.46,0.07,0.69,0.11c0.21,0.06,0.41,0.12,0.62,0.17c0.56,0.15,1.18,0.27,1.83,0.37
						c1.02,0.2,2.07,0.36,3.14,0.48c0.12,0.01,0.25,0.03,0.37,0.04c0,0,0,0,0,0c2.49,0.69,5.94,0.88,8.84,0.72
						c0.12-0.01,0.23-0.02,0.35-0.04c0.01,0.02,0.01,0.03,0.02,0.05c0.12,0.28,2.86,0.01,2.73-0.31c-0.02-0.05-0.03-0.1-0.05-0.14
						c0.49-0.07,0.88-0.2,0.89-0.35c0.03-0.36,0.16-0.71,0.36-1.06c0.16-0.06,0.29-0.14,0.34-0.22c0.15-0.26,0.31-0.52,0.48-0.77
						c0.12-0.16,0.26-0.31,0.39-0.47c0.38-0.37,0.8-0.74,1.22-1.1c0.14-0.12,0.09-0.2-0.06-0.26c0.4-0.45,0.84-0.89,1.26-1.34
						c0.59-0.06,1.15-0.21,1.28-0.42c1.2-2.02,3.11-3.91,5.33-5.76c0.21-0.17,0.11-0.29-0.14-0.36c0.68-0.6,1.46-1.19,2.05-1.8l0,0
						c0.68,0.01,1.55-0.11,1.79-0.32c2.03-1.83,3.17-3.94,4.44-5.95c0.11-0.05,0.19-0.11,0.21-0.18c0.04-0.12,0.1-0.24,0.15-0.37
						c0.1-0.16,0.2-0.31,0.31-0.46c0.1-0.04,0.18-0.08,0.21-0.13c0.2-0.27,0.37-0.53,0.53-0.8c0.15-0.06,0.27-0.12,0.33-0.19
						c0.41-0.55,0.74-1.1,1.05-1.66c0.27-0.06,0.48-0.15,0.56-0.25c0.13-0.17,0.25-0.34,0.38-0.51c0.17-0.04,0.3-0.1,0.35-0.15
						c0.97-1.17,1.78-2.36,2.53-3.56c0.62-0.07,1.19-0.22,1.2-0.41C187.86,110.56,187.06,108.56,186.39,106.55z"/>
				</g>
				<path class="st1" d="M135.01,44.47c-0.05-0.38-0.16-0.75-0.34-1.12c0-0.07-0.02-0.14-0.02-0.21c0-0.11-0.12-0.2-0.28-0.25v-0.05
					c0-0.53-1.97-0.38-2.51-0.1c0,0,0,0,0,0c-0.32,0.09-0.58,0.21-0.67,0.33c-0.06,0.08-0.08,0.15-0.08,0.23
					c-0.14,0.03-0.27,0.07-0.37,0.12c-0.03,0.01-0.05,0.02-0.08,0.03c-0.24-0.21-0.48-0.43-0.68-0.65
					c-0.01-0.01-0.02-0.01-0.03-0.02c-0.38-1.32-1.83-2.47-3.6-3.53c-0.06-0.06-0.1-0.13-0.14-0.19c0.11-0.04,0.2-0.08,0.23-0.13
					c0.16-0.23,0.34-0.47,0.59-0.69c0.16-0.04,0.31-0.09,0.4-0.16c0.01-0.01,0.02-0.02,0.04-0.03c0.34-0.04,0.66-0.12,0.89-0.23
					c0.24-0.11,0.41-0.25,0.52-0.39c0-0.01,0.01-0.01,0.01-0.02c0.23-0.07,0.39-0.16,0.4-0.26c0.07-0.97-1.79-1.61-3.68-1.99
					c-0.25-0.05-0.52-0.06-0.79-0.06c-1.8-0.5-3.78-0.87-5.8-1.22c-0.31-0.05-1.02,0.02-1.59,0.12c0.01-0.08-0.12-0.15-0.52-0.19
					c-3.81-0.46-7.5-0.24-11.31,0.09c-0.74,0.06-1.49,0.44-0.94,0.57c-0.43,0.03-0.87,0.06-1.29,0.09
					c-1.09-0.04-1.28-0.02-2.76,0.09c-0.64,0.05-1.74,0.4-1.46,0.57c-3.09,0.34-5.96,0.62-7.22,2.12c-0.58,0.09-1.05,0.24-0.91,0.4
					c0.85,1,2.06,1.93,2.9,2.93c0,0-0.01,0-0.01,0.01c-1.42,1.3-2.03,2.69-2.13,4.1c-0.07,0.21-0.12,0.42-0.15,0.63
					c-0.12-0.1-0.25-0.2-0.38-0.3c0-0.02-0.01-0.04-0.03-0.06c-0.09-0.08-0.18-0.16-0.27-0.24c0.03-0.16,0.07-0.33,0.15-0.49
					c0.12-0.27-0.41-0.38-1.03-0.37c-0.03-0.02-0.08-0.04-0.16-0.05c-0.17-0.14-0.34-0.28-0.52-0.42c-0.51-0.4-3.15-0.01-2.73,0.31
					c0.31,0.24,0.6,0.48,0.89,0.72c0.05,0.06,0.08,0.12,0.13,0.17c-0.21,0.09-0.31,0.2-0.17,0.31c0.22,0.19,0.41,0.38,0.62,0.57
					c0.01,0.21,0.05,0.42,0.11,0.63c-0.01,0.01-0.03,0.03-0.03,0.04c0,0.04,0,0.07,0,0.11c-0.03,0.02-0.06,0.04-0.08,0.07
					c-0.72,0.88,0.04,1.88,1.41,2.7c0.12,0.14,0.24,0.29,0.36,0.43c0.13,0.15,0.48,0.21,0.89,0.22c0.58,0.54,1.93,0.82,3.29,0.92
					c-0.32,0.26-0.18,0.59,0.02,0.92c0.2,0.34,0.47,0.67,0.78,1c-0.02,0.02-0.04,0.03-0.05,0.05c-0.42,0.64,0.62,1.3,1.89,1.85
					c0.1,0.61,0.31,1.23,0.56,1.84c-0.08,0.04-0.15,0.08-0.18,0.12c-0.51,0.69-0.43,1.5,0,2.29v0.31c0,0.11,0.15,0.19,0.36,0.23
					c0.05,0.06,0.11,0.12,0.17,0.19c-0.28,0.07-0.45,0.15-0.38,0.21c0.01,0.01,0.01,0.01,0.02,0.02c-0.25,0.07-0.36,0.15-0.22,0.21
					l0.17,0.07c-0.18,0.06-0.27,0.12-0.18,0.16c1.08,0.5,2.54,0.88,3.82,1.28c2.46,1.01,4.94,2.01,8.02,2.65
					c0.57,0.22,1.39,0.34,2.03,0.5c0.07,0.02,0.15,0.03,0.23,0.04c0.23,0.15,0.72,0.24,1.4,0.16c1.44-0.16,2.39-0.63,3.27-1.11
					c0.39-0.21,0.78-0.42,1.19-0.63c0.15-0.03,0.28-0.06,0.34-0.1c0.04-0.02,0.09-0.05,0.14-0.07c0.39-0.04,0.72-0.1,0.85-0.17
					c0.53-0.27,1.09-0.54,1.65-0.8c0.04-0.02,0.07-0.03,0.11-0.05c0.64-0.03,1.41-0.12,1.63-0.23c1.6-0.81,2.78-1.8,4.53-2.55
					c0.41-0.03,0.81-0.1,1.08-0.2c0.06-0.02,0.11-0.05,0.17-0.07l0.02,0c0.01-0.01,0.03-0.02,0.04-0.02
					c0.85-0.36,1.42-0.79,1.9-1.26c0.01-0.01,0.01-0.02,0.02-0.04c0.19-0.09,0.31-0.21,0.27-0.34c-0.14-0.57-0.41-1.13-0.56-1.69
					c-0.01-0.05-0.05-0.09-0.1-0.12c-0.15-0.69-0.32-1.38-0.45-2.08c0.25-0.06,0.41-0.14,0.41-0.22c0-0.05,0-0.09,0-0.14
					c0.25-0.06,0.42-0.14,0.42-0.22c0.01-0.4,0.06-0.8,0.13-1.2c0.26-0.07,0.44-0.17,0.44-0.28c0.01-0.37,0.04-0.74,0.08-1.11
					c0.02-0.03,0.04-0.06,0.06-0.1c0.04-0.06,0.02-0.12-0.03-0.16c0.01-0.09,0.03-0.18,0.05-0.27c0.3-0.09,0.57-0.19,0.8-0.32
					c0.19-0.1,0.34-0.21,0.49-0.32c0.06-0.04,0.12-0.08,0.18-0.13c-0.12,0.09,0.1-0.06,0.12-0.07c0.06-0.04,0.09-0.08,0.13-0.12
					c0.16-0.07,0.32-0.15,0.47-0.23c0.1-0.04,0.2-0.08,0.28-0.13c0.68-0.05,1.39-0.2,1.44-0.39c0.13-0.45,0.28-0.89,0.45-1.33
					c0.32-0.08,0.54-0.18,0.54-0.29c0-0.32,0.01-0.65,0-0.97c0.09-0.18,0.18-0.37,0.28-0.55C135.41,44.58,135.26,44.51,135.01,44.47
					z"/>
				<path class="st3" d="M188.28,83.44c-0.54-0.33-1.19-0.66-1.5-1.04c0.1-0.05,0.09-0.11-0.2-0.11c-2.56-0.04-5.41,0.42-7.73,0.86
					c-0.13,0.02-0.23,0.07-0.25,0.11c-0.17,0.02-0.33,0.03-0.5,0.05c-2.24,0.19-4.37,0.46-6.51,0.78c-3.43,0.52-7.74,1.01-10.4,2.18
					c-0.22,0.02-0.44,0.06-0.46,0.11c-0.01,0.03-0.01,0.07-0.02,0.1c-0.02,0.01-0.05,0.02-0.07,0.03c-0.08,0.04-0.04,0.06,0.04,0.08
					c-0.05,0.3-0.03,0.6-0.04,0.9c0,0.56-0.17,1.12-0.16,1.68c0,0.08,0.91,0.02,0.91-0.1c0-0.01,0-0.01,0-0.02
					c0.84-0.14,1.56-0.37,2.27-0.62c0.58-0.05,1.13-0.22,1.64-0.34c0.17-0.04,0.24-0.08,0.24-0.12c0.59-0.14,1.18-0.28,1.77-0.42
					c0.57-0.13,1.14-0.25,1.72-0.37c2.74-0.37,5.38-1.02,8.05-1.46c2.06-0.34,4.13-0.66,6.23-0.95c0.44-0.06,0.9-0.11,1.35-0.16
					c-0.02,0.1-0.04,0.2-0.05,0.3c-0.05,0.3,0.02,0.6,0.03,0.9c-0.19,0.1,0.21,0.2,0.57,0.12c0.63-0.13,1.22-0.41,1.68-0.63
					c0.71-0.34,1.35-0.69,1.86-1.08c0.17-0.02,0.31-0.07,0.31-0.12C189.07,83.85,188.61,83.64,188.28,83.44z"/>
				<path class="st1" d="M133.7,60.92c0-0.02-0.06-0.02-0.16-0.02c-0.06-0.53-0.3-1.05-0.71-1.58c-0.57-0.73-0.81-1.61-1.66-2.31
					c0.02-0.02,0.02-0.04-0.02-0.06c-0.1-0.06-0.2-0.11-0.3-0.16c-0.12-0.08-0.25-0.15-0.39-0.23c-0.1-0.07-0.22-0.13-0.36-0.18
					c0,0,0,0,0,0c0,0,0,0,0,0c-0.1-0.03-0.2-0.06-0.33-0.09c-0.18-0.03-0.88,0.01-0.82,0.14c0.16,0.32,0.24,0.65,0.29,0.97
					c-0.14,0.04-0.24,0.09-0.23,0.16c0.05,0.26-0.51,0.58-0.8,0.8c-0.27,0.2-0.62,0.38-0.92,0.57c-0.07,0.04-0.13,0.09-0.18,0.13
					c-0.24,0.03-0.44,0.08-0.55,0.14c-0.06,0.03-0.11,0.06-0.17,0.09c0,0,0,0,0,0c-0.01,0.01-0.03,0.02-0.04,0.02
					c-0.82,0.44-1.59,0.89-2.41,1.32c-1.86,0.69-3.65,1.45-5.47,2.16c-0.29,0.11-0.35,0.2-0.28,0.27c-0.12,0.04-0.24,0.09-0.36,0.13
					c-0.27,0.02-0.52,0.06-0.68,0.11c-0.2,0.06-0.39,0.13-0.58,0.19c-0.16,0.02-0.3,0.03-0.36,0.05c-1.07,0.25-2.11,0.52-3.07,0.84
					c-0.52,0.17-0.57,0.3-0.4,0.4c-0.65,0-1.31,0.04-1.92,0.07c-0.13,0.01-0.8,0.09-1.31,0.19c0.09-0.09,0.14-0.19,0.13-0.29
					c0.12-0.03,0.18-0.07,0.09-0.1c-1.54-0.52-3.12-1.01-4.67-1.52c-0.63-0.21-1.47-0.42-2.25-0.65c-1.09-0.45-2.05-0.96-3.24-1.38
					c-0.34-0.12-0.72-0.22-1.09-0.32c-0.55-0.26-1.06-0.53-1.38-0.83c0-0.02,0-0.04,0-0.07c0-0.01,0-0.02,0.01-0.04
					c0.26-0.24,0.31-0.45,0.2-0.71c-0.02-0.04-0.13-0.06-0.27-0.05c-0.01,0-0.01-0.01-0.02-0.01c-0.09-0.64-0.2-1.28-0.33-1.93
					c-0.03-0.15-0.58-0.08-0.71-0.01c-0.1,0.05-0.18,0.09-0.27,0.13c-0.04,0.01-0.07,0.01-0.08,0.01c-0.02,0-0.03,0.01-0.05,0.02
					c0,0-0.01,0-0.01,0c-0.01,0-0.02,0.01-0.03,0.01c-0.14,0.04-0.26,0.09-0.38,0.14c-0.02,0.01-0.05,0.01-0.07,0.02
					c-0.21,0.08-0.41,0.16-0.61,0.24c-0.09,0.03-0.12,0.06-0.12,0.09c-0.09,0.05-0.15,0.1-0.22,0.15c-0.38,0.17-0.66,0.39-0.75,0.63
					c-0.05,0.06-0.09,0.12-0.13,0.18c-0.05,0.07-0.09,0.13-0.12,0.2c-0.1,0.2-0.17,0.4-0.18,0.6c0,0.01,0.02,0.01,0.05,0.01
					c-0.01,0.07-0.02,0.13-0.03,0.2c-0.11,0.02-0.19,0.06-0.19,0.11c0,0.58,0.04,1.16,0.13,1.73l0,0.02c-0.21,1.42,0.76,2.75,2.66,4
					c1.02,0.67,2.42,1.23,3.67,1.83c1.11,0.53,1.36,1.27,2.26,1.85c-0.03,0.01-0.06,0.02-0.09,0.03c-0.16,0.06-0.03,0.1,0.15,0.1
					c0.05,0,0.11-0.01,0.16-0.01c0.16,0.03,0.45,0,0.59-0.06c1.38-0.21,2.79-0.91,3.56-1.49c0.13-0.05,0.26-0.1,0.39-0.15
					c0.89-0.36,1.37-0.89,1.74-1.4c0.05,0.06,0.09,0.12,0.14,0.17c0.22,0.36,0.45,0.72,0.67,1.08c0.1,0.44,0.37,0.87,0.68,1.3
					c0.06,0.41,0.32,0.82,0.48,1.21c0.12,0.3,0.22,0.6,0.3,0.9c0.06,0.76,0.14,1.52,0.45,2.27c0.04,0.5,0.13,1.01,0.25,1.51
					c0.04,0.88,0.04,1.75,0.37,2.63c-0.04,0.45-0.05,0.9,0.02,1.34c-0.14,0.05-0.23,0.1-0.23,0.15c-0.02,1.24-0.67,2.67,0.19,3.88
					c-0.1,0.04-0.18,0.09-0.19,0.14c-0.17,0.81-0.11,1.63-0.08,2.45c0,0.03,0.03,0.05,0.07,0.07c0,1.8-0.03,3.6-0.08,5.39
					c-0.81,1.65-1.14,3.7-0.52,5.34c0.01,0.23,0.04,0.46,0.08,0.69c-0.08,0.03-0.13,0.07-0.14,0.1c-0.49,1.29-0.65,2.78-0.2,4.09
					c-0.13,0.07-0.23,0.14-0.27,0.22c-1.81,3.72-1.15,7.76-0.67,11.56c-0.11,0.05-0.18,0.1-0.2,0.16c-0.34,0.95-0.29,2.01,0.01,3.01
					c-0.14,0.06-0.23,0.13-0.23,0.2v1.68c0,0.07,0.04,0.13,0.12,0.17c0,0.01,0,0.01,0,0.02c-0.03,0.36-0.03,0.72,0.07,1.07
					c0.04,0.59,0.08,1.17,0.13,1.75c-1.08,2.23,0.03,4.7,0.25,6.94c0.26,2.61,1.17,5.19,1.73,7.8c0.01,0.06,0.06,0.1,0.12,0.14
					c0.08,0.24,0.15,0.48,0.25,0.72c0.01,0.03,0.06,0.06,0.12,0.08c0.01,0.08,0.03,0.16,0.05,0.24c-0.06,0.05-0.1,0.11-0.1,0.16
					c0.03,0.42,0.37,0.8,0.59,1.2c0.07,0.13,0.34,0.2,0.68,0.22c0.1,0.15,0.22,0.3,0.35,0.45c0.01,0.01,0.02,0.01,0.02,0.02
					c0.19,0.21,0.42,0.41,0.74,0.6c0.46,0.26,1.82,0.14,2.38-0.12c0.01,0.01,0.02,0.03,0.03,0.04c0.35,0.42,2.65,0.19,2.74-0.22
					c0.02-0.1,0.01-0.2-0.01-0.29c0.09-0.07,0.13-0.14,0.08-0.21c-0.22-0.33-0.49-0.63-0.86-0.93c0.2-0.07,0.32-0.15,0.27-0.24
					c-1.19-1.86-2.3-3.71-2.59-5.64c-0.01-0.05-0.07-0.08-0.17-0.11c0-0.02-0.01-0.04-0.01-0.06c0.1-2.18,0.66-4.44,0.11-6.59
					c-0.02-0.07-0.08-0.12-0.17-0.16c0.11-0.96,0.31-1.93,0.02-2.88c-0.01-0.04-0.06-0.07-0.14-0.1c-0.07-1.25-0.15-2.51-0.22-3.76
					c0.15-0.06,0.27-0.14,0.3-0.23c0.4-1.53,0.18-3.19-0.16-4.73c-0.02-0.07-0.09-0.12-0.19-0.16c0-1.1-0.03-2.19-0.17-3.29v0h0
					c0-0.03,0-0.06-0.01-0.1c-0.01-0.1-0.17-0.17-0.41-0.2c0-0.02-0.01-0.03-0.01-0.05c0-0.22-0.03-0.44-0.04-0.66
					c0.03-0.54,0.04-1.09,0.02-1.63c0,0,0.01,0,0.01,0c0-0.01,0-0.02,0-0.03c0.61-1.05,0.59-2.16,0.48-3.27
					c0.16-0.83,0.23-1.66-0.03-2.48c0.19-0.05,0.33-0.11,0.34-0.17c0.17-0.58,0.22-1.15,0.22-1.72c0.21-0.96,0.5-1.92,0.52-2.88
					c0-0.05-0.18-0.07-0.44-0.07c0.03-0.02,0.06-0.04,0.07-0.07c0.34-1.01,0.59-2.01,0.59-3.01c0.11-0.42,0.2-0.84,0.27-1.26
					c0.03-0.12,0.04-0.23,0.06-0.35c0.06-0.03,0.1-0.06,0.12-0.08c0.62-1.1,0.73-2.18,0.66-3.28c0.11-0.57,0.13-1.13-0.06-1.67
					c-0.09-1.47,0.02-2.94-0.07-4.41c0-0.04-0.1-0.06-0.26-0.07c-0.02-0.2-0.06-0.4-0.11-0.6c0.2-1.01,0.66-2.35-0.25-3.07
					c0.01-0.39,0.02-0.79,0.03-1.18c0-0.04-0.13-0.06-0.33-0.07c-0.09-0.34-0.17-0.68-0.26-1.01c-0.01-0.02-0.05-0.04-0.12-0.06
					c-0.03-0.86-0.05-1.75-0.31-2.59c-0.02-0.3-0.04-0.59-0.08-0.89c-0.01-0.09-0.08-0.15-0.18-0.21c-0.03-0.42-0.07-0.85-0.12-1.27
					c-0.03-0.74-0.03-1.48-0.09-2.21c0.22-0.88,0.07-1.79-0.07-2.66c-0.01-0.05-0.12-0.08-0.3-0.09c-0.02-0.17-0.04-0.34-0.07-0.51
					c0.17,0.07,0.34,0.15,0.5,0.22c-0.01,0.04,0,0.08,0.03,0.13c0.4,0.49,1.23,0.8,2.07,1.15c1.01,0.42,2.04,0.84,2.9,1.32
					c0.12,0.06,0.28,0.1,0.46,0.13c-0.62,0.58,2.13,0.53,2.59,0.1c0.26-0.24,0.32-0.5,0.43-0.76c0.16-0.05,0.27-0.11,0.31-0.18
					c0.05-0.1,0.1-0.19,0.16-0.29c0.14-0.02,0.26-0.04,0.29-0.06c0.13-0.07,0.27-0.14,0.39-0.21c0.64-0.24,1.27-0.49,1.87-0.76
					c0.08-0.03,0.15-0.06,0.21-0.09c2.61-1.17,4.78-2.56,5.83-4.1c0.28-0.42,0.43-0.83,0.46-1.24c0.05-0.11,0.11-0.22,0.15-0.33
					c0,0,0-0.01,0.01-0.01c0,0,0,0,0,0C133.69,60.93,133.7,60.92,133.7,60.92z"/>
				<path class="st1" d="M82.07,238.38c-0.41-0.64-0.85-1.28-1.3-1.92c-0.01-0.01-0.02-0.02-0.04-0.03c-0.15-0.3-0.3-0.61-0.41-0.92
					c-0.02-0.07-0.14-0.11-0.3-0.14c-0.02-0.04-0.04-0.08-0.06-0.12c0.04-0.05,0.07-0.09,0.12-0.14c0.2-0.17,0.01-0.26-0.34-0.3
					c-0.05-0.1-0.1-0.21-0.15-0.31c-0.04-0.09-0.24-0.15-0.52-0.17c-0.02-0.01-0.05-0.01-0.07-0.02v-0.22
					c0-0.18-0.28-0.27-0.62-0.31v-0.61c0-0.06-0.12-0.09-0.27-0.09c-0.01-0.02-0.02-0.04-0.03-0.06c-0.06-0.13-0.9-0.05-0.91,0.08
					c0.02,0.16-0.01,0.33-0.06,0.49c-1.12,0.35-2.03,0.82-3.56,0.78c-0.04-0.01-0.08-0.02-0.12-0.03c0.1-0.04,0.12-0.09-0.1-0.11
					c-0.37-0.03-0.69-0.09-0.99-0.16c0.1-0.11-0.03-0.22-0.55-0.28c-0.3-0.04-0.59-0.08-0.88-0.11c0,0-0.01,0-0.01,0
					c-0.01,0-0.02,0-0.03,0c-0.08-0.01-0.16-0.02-0.23-0.03c0,0-0.01,0-0.01,0c0.2-0.04,0.34-0.11,0.12-0.15
					c-0.62-0.14-1.25-0.28-1.89-0.41c-0.83-0.24-1.6-0.51-2.57-0.65c-1.36-0.19-2.55-0.19-3.96-0.1c-0.44,0.03-0.75,0.26-0.12,0.22
					c0.39-0.02,0.75-0.02,1.11-0.01c-0.2,0.01-0.4,0.01-0.6,0.02c-0.69,0.04-1.33,0.17-1.93,0.33c0,0-0.01,0-0.02-0.01
					c0.08-0.03,0.16-0.06,0.24-0.09c0.4-0.15-0.45-0.15-0.65-0.1c-1.06,0.29-1.9,0.62-2.45,1.09c-0.14,0.1-0.25,0.2-0.33,0.31
					c-0.32,0.05-0.59,0.11-0.71,0.18c-0.31,0.17-0.62,0.35-0.93,0.52c-0.84,0.37-1.57,0.8-2.2,1.24c-1.59,0.89-3.21,1.78-4.99,2.61
					c-0.84,0.39-2.09,0.94-2.49,1.52c-0.08,0.01-0.14,0.02-0.19,0.03c-2.05,0.47-2.99,1.38-2.7,2.31c-0.72,0.5-1.02,1.1-1.05,1.7
					c-0.1,0.23-0.06,0.48,0.08,0.72c0.07,0.24,0.17,0.48,0.31,0.7c0.03,0.06,0.08,0.12,0.12,0.19c-0.13,0.19-0.03,0.36,0.46,0.51
					c0.24,0.2,0.56,0.37,0.99,0.44c0.26,0.04,0.6,0.03,0.91,0.01c0.05,0.04,0.16,0.06,0.34,0.06c2.11,0.01,4.17,0.18,6.26,0.2
					c1.76,0.02,3.42-0.27,5.19-0.08c0.17,0.02,0.38-0.02,0.54-0.07c2.05,0.01,4.27-0.44,6.27-0.99c0.61,0.04,1.58-0.04,1.93-0.18
					c0.26-0.11,0.51-0.21,0.75-0.32c0.43-0.01,0.86-0.05,1.07-0.11c0.08-0.02,0.15-0.05,0.23-0.08l0.02,0
					c0.05-0.02,0.1-0.04,0.15-0.06c2.27-0.74,3.86-1.79,5.88-2.62c0.48,0.01,1.07-0.02,1.4-0.09c1.7-0.39,7.02-1.02,7.71-1.99
					C83.44,239.76,82.87,239.06,82.07,238.38z M63.82,232.95c-0.19,0-0.47,0.02-0.75,0.06c-0.12-0.08-0.39-0.13-0.68-0.15
					c0.48-0.07,1.01-0.11,1.59-0.11c0.66,0,1.31,0.05,1.96,0.13c0.43,0.1,0.84,0.2,1.26,0.31C66.1,233.07,64.99,232.97,63.82,232.95
					z"/>
				<path class="st1" d="M188.59,244.19c0.71-0.89,0.28-1.87-1.59-2.99c-0.98-1.05-2.29-2.02-4.29-2.86
					c-0.16-0.07-0.46-0.1-0.81-0.1c-1.15-0.78-2.26-1.57-3.62-2.23c0.24-0.09,0.37-0.19,0.25-0.32c-1.08-1.18-2.08-3.46-5.47-3.88
					c-3.7-0.46-5.32,0.25-7.07,1.21c-0.33,0.05-0.6,0.12-0.74,0.2c-0.23,0.13-0.38,0.22-0.48,0.29c-0.22,0.03-0.41,0.07-0.53,0.12
					c-0.94,0.37-2.11,0.64-3.15,0.96c-0.78-0.18-2.87,0.17-2.32,0.54c0.14,0.1,0.27,0.19,0.4,0.29c-0.42,0.09-0.71,0.21-0.65,0.34
					c0.52,1.1-0.07,2.2,0.44,3.29c0.05,0.1,0.26,0.15,0.55,0.16c-0.15,0.24-0.26,0.52-0.35,0.81c-0.07,0.18-0.11,0.35-0.11,0.53
					c-0.19,1.39,0.36,3.06,2.4,3.93c0.12,0.1,0.25,0.19,0.39,0.27c1.21,0.8,3.33,1.32,5.93,1.7c0.04,0.01,0.1,0.01,0.16,0.01
					c2.02,0.51,4.19,0.84,6.35,0.83c0.39,0,1.33-0.12,1.73-0.3c1.24,0.13,2.47,0.2,3.71,0.18c0.14-0.16,0.43-0.29,0.9-0.33
					c1.26-0.08,2.47-0.22,3.66-0.43c0.34-0.06,0.66-0.05,0.93-0.01c1.88-0.44,3.51-1.05,4.09-1.96
					C189.46,244.25,189.1,244.18,188.59,244.19z"/>
				<g>
					<g>
						<path class="st0" d="M94.03,35.9c-1.82,0.31-3.81,0.22-5.56-0.69c-0.87-0.45-1.68-1.11-2.15-2.08
							c-0.23-0.48-0.34-1.04-0.27-1.61c0.1-0.57,0.42-1.19,0.91-1.47c0.95-0.63,1.95-0.7,2.89-0.79c0.95-0.05,1.88-0.06,2.81-0.02
							c1.85,0.04,3.68,0.19,5.53,0.03c-1.79,0.55-3.68,0.66-5.52,0.75c-0.92,0.06-1.84,0.08-2.73,0.18
							c-0.88,0.09-1.81,0.23-2.39,0.66c-0.34,0.18-0.43,0.48-0.53,0.79c-0.05,0.36,0.03,0.73,0.17,1.09
							c0.3,0.73,0.95,1.33,1.68,1.79C90.34,35.46,92.18,35.83,94.03,35.9z"/>
					</g>
					<g>
						<path class="st0" d="M97.64,29.42c1.43-0.38,2.68-1.1,4.04-1.71c0.69-0.29,1.41-0.52,2.17-0.64c0.76-0.12,1.52-0.12,2.26-0.08
							c1.49,0.09,2.89,0.26,4.28-0.03c1.42-0.21,2.78-0.66,4.27-0.96c1.5-0.31,3.16-0.14,4.57,0.44c1.42,0.54,2.74,1.47,3.75,2.54
							l3.18,3.02c1.04,1.03,2.1,2.04,3.13,3.1c-2.32-1.79-4.6-3.65-6.83-5.56c-1.08-0.97-2.21-1.77-3.56-2.22
							c-1.32-0.5-2.68-0.64-4.05-0.35c-1.38,0.26-2.82,0.72-4.31,0.91c-1.52,0.25-3.07,0.05-4.48-0.14
							c-1.43-0.21-2.83-0.08-4.2,0.41C100.49,28.6,99.12,29.26,97.64,29.42z"/>
					</g>
					<g>
						<path class="st0" d="M129.29,36.71c-1.6-0.77-3.3-1.29-5.03-1.64c-1.72-0.37-3.47-0.61-5.23-0.75
							c-3.51-0.28-7.04-0.3-10.55-0.03c-1.77,0.11-3.49,0.33-5.27,0.55l-5.28,0.61c-1.73,0.25-3.52,0.49-5.09,1.16
							c-0.39,0.17-0.74,0.4-0.94,0.72c-0.21,0.31-0.12,0.73,0.1,1.1c0.44,0.73,1.14,1.32,1.77,1.94c-0.7-0.54-1.44-1.05-1.99-1.8
							c-0.13-0.19-0.24-0.41-0.31-0.65c-0.04-0.25-0.04-0.53,0.09-0.76c0.23-0.47,0.65-0.76,1.05-0.98
							c1.66-0.83,3.44-1.14,5.19-1.49c1.76-0.33,3.52-0.54,5.28-0.79c1.74-0.25,3.54-0.49,5.31-0.61c3.57-0.24,7.16-0.2,10.71,0.27
							C122.65,34.05,126.25,34.81,129.29,36.71z"/>
					</g>
					<g>
						<path class="st0" d="M93.69,40.24c0.22,0.15,0.34,0.54,0.18,0.85c-0.14,0.29-0.33,0.49-0.48,0.68
							c-0.31,0.37-0.53,0.69-0.67,1.09c-0.16,0.38-0.23,0.82-0.31,1.29c-0.07,0.47-0.13,1-0.32,1.51c-0.22-0.49-0.38-0.97-0.46-1.5
							c-0.08-0.52-0.06-1.11,0.15-1.66c0.21-0.54,0.63-1.04,1.09-1.31C93.3,40.86,93.75,40.84,93.69,40.24z"/>
					</g>
					<g>
						<path class="st0" d="M91.98,45.7c-0.78-1.01-1.87-1.62-2.86-2.42c-0.51-0.38-1-0.8-1.47-1.29c-0.47-0.53-0.79-1.01-1.19-1.55
							c-0.36-0.55-0.69-1.13-0.92-1.78c-0.21-0.64-0.35-1.39-0.14-2.1c0.19-0.71,0.68-1.31,1.25-1.65c0.57-0.36,1.18-0.58,1.81-0.72
							c-1.09,0.62-2.15,1.47-2.3,2.53c-0.14,1.06,0.46,2.16,1.13,3.15c0.33,0.49,0.72,1.06,1.07,1.49c0.37,0.46,0.83,0.88,1.27,1.32
							C90.5,43.56,91.53,44.47,91.98,45.7z"/>
					</g>
					<g>
						<path class="st0" d="M129.29,36.71c0.13,0.16,0.12,0.44-0.01,0.64c-0.12,0.2-0.3,0.34-0.46,0.47c-0.34,0.25-0.69,0.46-1,0.66
							c-0.31,0.19-0.61,0.45-0.6,0.56c0.01,0.04-0.01,0.06,0.06,0.15c0.06,0.09,0.18,0.2,0.32,0.3c0.27,0.22,0.61,0.43,0.95,0.71
							c0.35,0.32,0.59,0.62,0.83,0.97c0.46,0.68,0.83,1.46,0.88,2.29c-0.45-0.68-0.95-1.25-1.48-1.79
							c-0.27-0.25-0.55-0.55-0.82-0.72c-0.29-0.21-0.63-0.41-0.98-0.67c-0.17-0.14-0.35-0.3-0.51-0.54
							c-0.17-0.23-0.27-0.63-0.15-0.97c0.31-0.65,0.77-0.8,1.14-0.97c0.38-0.16,0.77-0.26,1.12-0.39
							C128.92,37.26,129.32,37.15,129.29,36.71z"/>
					</g>
					<g>
						<path class="st0" d="M130.36,43.41c-0.04-0.49,0.24-0.97,0.54-1.35c0.31-0.38,0.67-0.71,1.03-1.01
							c0.71-0.61,1.51-1.13,1.96-1.75c0.43-0.54,0.37-1.41,0.05-2.17c-0.33-0.77-0.92-1.47-1.65-2.07c0.92,0.23,1.79,0.83,2.34,1.71
							c0.28,0.43,0.46,0.94,0.51,1.49c0.04,0.54-0.09,1.15-0.43,1.63c-0.69,0.88-1.53,1.31-2.32,1.8
							C131.62,42.17,130.77,42.54,130.36,43.41z"/>
					</g>
					<g>
						<path class="st0" d="M123.52,29.87c0.99-0.23,2.01-0.33,3.04-0.28c1.03,0.03,2.07,0.24,3.05,0.66
							c0.48,0.22,0.95,0.5,1.37,0.84c0.43,0.35,0.83,0.86,0.97,1.43c0.16,0.56,0.12,1.07,0.19,1.53c0.05,0.46,0.25,0.89,0.58,1.29
							c-0.46-0.21-0.85-0.65-1.05-1.16c-0.2-0.51-0.27-1.01-0.45-1.4c-0.18-0.38-0.43-0.69-0.81-0.93c-0.38-0.27-0.78-0.5-1.21-0.68
							C127.49,30.4,125.52,30.23,123.52,29.87z"/>
					</g>
					<g>
						<path class="st0" d="M97.97,33.91c-0.84,0.17-1.71,0.07-2.53-0.1c-0.83-0.17-1.63-0.45-2.4-0.78
							c-0.77-0.35-1.51-0.74-2.2-1.26c-0.34-0.25-0.67-0.54-0.96-0.87c-0.14-0.17-0.27-0.36-0.36-0.57c-0.1-0.2-0.1-0.52,0.1-0.64
							c-0.1,0.2,0.01,0.37,0.14,0.5c0.13,0.13,0.28,0.25,0.45,0.35c0.33,0.21,0.68,0.39,1.04,0.58c0.72,0.35,1.45,0.69,2.19,1.01
							c0.73,0.33,1.48,0.64,2.22,0.95C96.41,33.37,97.16,33.67,97.97,33.91z"/>
					</g>
					<g>
						<path class="st0" d="M102.24,33.13c-1.14-0.08-2.18-0.37-3.19-0.84c-0.5-0.25-0.99-0.53-1.42-0.95
							c-0.22-0.2-0.42-0.45-0.54-0.76c-0.13-0.33-0.02-0.73,0.24-0.88c-0.12,0.61,0.37,0.76,0.77,1.03
							c0.44,0.23,0.91,0.45,1.38,0.67c0.47,0.24,0.95,0.47,1.42,0.75C101.36,32.42,101.83,32.72,102.24,33.13z"/>
					</g>
					<g>
						<path class="st0" d="M101.81,27.9c-0.07,0.43,0,0.79,0.21,1.07c0.21,0.28,0.52,0.48,0.84,0.67c0.65,0.36,1.4,0.63,2.14,0.86
							c1.5,0.5,3.05,0.88,4.62,1.49c-1.67,0.18-3.33-0.03-4.93-0.54c-0.79-0.27-1.59-0.6-2.28-1.17c-0.34-0.29-0.66-0.63-0.83-1.09
							C101.43,28.72,101.55,28.22,101.81,27.9z"/>
					</g>
					<g>
						<path class="st0" d="M108.02,27.67c0.06,0.27,0.29,0.4,0.51,0.51c0.23,0.1,0.46,0.19,0.71,0.26c0.49,0.14,0.99,0.24,1.5,0.35
							c1.01,0.2,2.04,0.37,3.08,0.65c1.03,0.29,2.07,0.67,2.98,1.32c0.92,0.61,1.65,1.69,1.6,2.79c-0.38-1.02-1.13-1.68-2.01-2.12
							c-0.88-0.45-1.85-0.76-2.83-1.02c-0.98-0.28-2.02-0.49-3.02-0.86c-0.5-0.18-1-0.39-1.48-0.65c-0.24-0.14-0.47-0.29-0.68-0.48
							C108.16,28.23,107.96,27.95,108.02,27.67z"/>
					</g>
					<g>
						<path class="st0" d="M114.32,26.57c0.29,0.41,0.72,0.59,1.16,0.76c0.44,0.17,0.9,0.31,1.35,0.46
							c0.91,0.29,1.88,0.59,2.77,1.14c0.87,0.55,1.66,1.25,2.21,2.14c0.55,0.87,0.86,1.95,0.63,2.94c-0.2-0.98-0.67-1.78-1.26-2.48
							c-0.6-0.69-1.31-1.27-2.1-1.74c-0.76-0.49-1.66-0.82-2.54-1.27c-0.44-0.22-0.88-0.46-1.3-0.75
							C114.85,27.47,114.41,27.09,114.32,26.57z"/>
					</g>
					<g>
						<path class="st0" d="M90.69,42.31c-0.72-0.08-1.36-0.57-1.83-1.13c-0.48-0.56-0.81-1.23-1.02-1.93
							c-0.19-0.71-0.26-1.48-0.05-2.23c0.18-0.74,0.78-1.45,1.51-1.54c-0.53,0.49-0.71,1.09-0.75,1.68
							c-0.02,0.6,0.07,1.22,0.25,1.82c0.16,0.61,0.4,1.2,0.7,1.77C89.81,41.3,90.15,41.84,90.69,42.31z"/>
					</g>
					<g>
						<path class="st0" d="M130.04,42.26c-0.44-0.19-0.75-0.61-0.92-1.06c-0.18-0.46-0.2-0.96-0.12-1.44c0.1-0.47,0.29-0.93,0.6-1.3
							c0.3-0.37,0.71-0.65,1.18-0.74c-0.42,0.83-0.67,1.49-0.8,2.22c-0.08,0.36-0.1,0.72-0.1,1.1
							C129.89,41.42,129.93,41.8,130.04,42.26z"/>
					</g>
					<g>
						<path class="st0" d="M132.82,41.02c-0.38-0.06-0.72-0.37-0.84-0.79c-0.13-0.42-0.04-0.85,0.11-1.2
							c0.35-0.69,0.94-1.16,1.69-1.27c-0.24,0.72-0.57,1.21-0.78,1.69c-0.12,0.23-0.19,0.45-0.25,0.68
							C132.71,40.37,132.73,40.65,132.82,41.02z"/>
					</g>
					<g>
						<path class="st0" d="M126.51,30.01c0.46,0.12,0.89,0.18,1.33,0.35c0.22,0.07,0.44,0.19,0.67,0.35
							c0.2,0.16,0.39,0.34,0.55,0.54c0.31,0.42,0.5,0.92,0.54,1.4c0.05,0.48,0.01,0.93-0.09,1.4c-0.31-0.39-0.48-0.82-0.66-1.2
							c-0.18-0.38-0.35-0.71-0.58-1c-0.1-0.15-0.23-0.29-0.37-0.43c-0.11-0.13-0.28-0.24-0.44-0.39
							C127.14,30.76,126.73,30.47,126.51,30.01z"/>
					</g>
					<g>
						<path class="st0" d="M90.05,44.14c-0.48-0.17-0.94-0.37-1.41-0.49c-0.47-0.12-0.95-0.21-1.43-0.24l0.22-0.04
							c-0.19,0.14-0.18,0.19-0.16,0.27c0.03,0.11,0.18,0.31,0.33,0.5c0.15,0.21,0.34,0.39,0.49,0.77c0.13,0.37,0.12,0.68,0.1,0.97
							c-0.06,0.58-0.11,0.95,0.08,1.26c0.19,0.37,0.52,0.77,0.86,1.12c0.34,0.35,0.71,0.71,1.09,1c0.35,0.27,0.78,0.47,1.26,0.59
							c0.96,0.26,2.03,0.37,3.05,0.62c-1.05,0.07-2.09,0.18-3.19,0.05c-0.54-0.08-1.12-0.22-1.62-0.56
							c-0.47-0.32-0.89-0.65-1.28-1.03c-0.39-0.39-0.76-0.79-1.06-1.34c-0.15-0.29-0.23-0.67-0.22-0.98c0-0.32,0.05-0.59,0.08-0.83
							c0.07-0.52,0.02-0.66-0.33-1.15c-0.14-0.23-0.32-0.47-0.39-0.87c-0.03-0.2,0.01-0.47,0.16-0.64c0.13-0.17,0.28-0.27,0.43-0.34
							l0.12-0.06l0.1,0.02C88.35,42.98,89.28,43.5,90.05,44.14z"/>
					</g>
					<g>
						<path class="st0" d="M130.58,43.59c0.41-0.43,0.81-0.87,1.35-1.2c0.53-0.33,1.22-0.51,1.88-0.42c0.32,0.04,0.67,0.1,1.01,0.32
							c0.33,0.21,0.57,0.53,0.72,0.85c0.29,0.67,0.31,1.34,0.23,1.99c-0.21,1.27-0.87,2.49-1.95,3.23c-1.07,0.74-2.4,0.88-3.56,0.65
							c1.18-0.18,2.28-0.55,3.08-1.26c0.79-0.71,1.28-1.72,1.44-2.76c0.09-0.5,0.06-1.05-0.1-1.47c-0.16-0.44-0.45-0.65-0.99-0.78
							c-0.49-0.13-1.02-0.09-1.54,0.1C131.61,43,131.12,43.33,130.58,43.59z"/>
					</g>
					<g>
						<path class="st0" d="M94.01,50.33c0.1,0.88,0.49,1.68,0.99,2.36c0.24,0.33,0.53,0.7,0.82,0.93c0.31,0.24,0.67,0.43,1.06,0.58
							c0.78,0.29,1.63,0.51,2.48,0.74c0.85,0.22,1.73,0.53,2.55,0.84c1.64,0.63,3.27,1.23,4.95,1.72c1.67,0.48,3.39,0.86,5.12,1.23
							c-1.77,0.01-3.56-0.11-5.31-0.47c-1.76-0.34-3.46-0.93-5.11-1.54c-1.61-0.7-3.3-1.01-4.99-1.8c-0.41-0.21-0.83-0.45-1.18-0.81
							c-0.36-0.38-0.57-0.75-0.79-1.16C94.19,52.14,93.88,51.23,94.01,50.33z"/>
					</g>
					<g>
						<path class="st0" d="M111.97,58.77c1.9-0.25,3.82-0.41,5.66-0.77c1.84-0.35,3.53-1.1,5.23-1.95c0.86-0.41,1.72-0.85,2.62-1.23
							c0.91-0.36,1.75-0.69,2.5-1.19c0.75-0.5,1.31-1.17,1.59-2.07c0.31-0.87,0.54-1.87,1.13-2.65c-0.38,0.89-0.48,1.81-0.65,2.78
							c-0.1,0.48-0.28,0.97-0.55,1.42c-0.28,0.44-0.65,0.81-1.05,1.14c-0.78,0.65-1.74,1.04-2.58,1.44
							c-0.85,0.39-1.69,0.82-2.55,1.26c-1.71,0.84-3.58,1.62-5.55,1.83C115.81,59.01,113.89,58.91,111.97,58.77z"/>
					</g>
					<g>
						<path class="st0" d="M96.78,54.54c0.36,0.87,0.42,1.71,0.5,2.53c0.05,0.83,0.08,1.59,0.07,2.52
							c-0.73-0.63-0.99-1.58-1.07-2.45C96.24,56.25,96.36,55.38,96.78,54.54z"/>
					</g>
					<g>
						<path class="st0" d="M128.94,53.65c0.09,0.82,0.21,1.4,0.31,2.12c0.03,0.35,0.08,0.72,0.05,1.1
							c-0.02,0.38-0.08,0.78-0.29,1.16c-0.4-0.72-0.65-1.36-0.76-2.13c-0.04-0.38-0.05-0.79,0.06-1.19
							C128.41,54.31,128.61,53.91,128.94,53.65z"/>
					</g>
					<g>
						<path class="st0" d="M112.54,64.6c0.81,0.5,1.72,0.74,2.58,1.21c0.83,0.41,1.67,0.81,2.52,1.18c1.7,0.78,3.43,1.49,5.1,2.47
							c-1.92-0.23-3.75-0.79-5.51-1.56c-0.87-0.41-1.73-0.86-2.51-1.43C113.99,65.91,113.09,65.44,112.54,64.6z"/>
					</g>
					<g>
						<path class="st0" d="M129.01,56.22c0.46-0.06,0.94-0.07,1.41,0.07c0.47,0.13,0.92,0.44,1.22,0.84c0.31,0.4,0.49,0.86,0.72,1.2
							c0.06,0.09,0.12,0.15,0.17,0.21l0.24,0.24l0.5,0.48c0.33,0.34,0.7,0.67,0.95,1.18c0.13,0.25,0.21,0.56,0.21,0.88
							c-0.02,0.31-0.1,0.62-0.23,0.86c-0.26,0.5-0.61,0.87-0.97,1.2c-0.35,0.33-0.7,0.63-1.07,0.93c-1.47,1.18-3.13,2.18-4.92,2.8
							c-0.91,0.31-1.74,0.54-2.57,0.96c-0.83,0.37-1.62,0.87-2.44,1.31c0.69-0.62,1.42-1.2,2.2-1.74c0.77-0.53,1.7-0.9,2.52-1.25
							c1.66-0.74,3.18-1.7,4.59-2.85c0.69-0.57,1.47-1.15,1.84-1.79c0.19-0.32,0.21-0.59,0.07-0.92c-0.14-0.33-0.44-0.68-0.73-1.02
							l-0.46-0.52l-0.23-0.27c-0.09-0.11-0.17-0.23-0.23-0.35c-0.23-0.46-0.35-0.89-0.56-1.26c-0.19-0.38-0.51-0.68-0.91-0.87
							C129.93,56.35,129.48,56.27,129.01,56.22z"/>
					</g>
					<g>
						<path class="st0" d="M112.61,64.63c1.56-0.38,2.88-1.3,4.43-1.82c1.5-0.57,3.03-1.03,4.44-1.65c1.38-0.65,2.86-1.4,4.31-2.03
							c0.73-0.32,1.48-0.59,2.23-0.88c0.73-0.22,1.28-0.89,2.05-1.18c-0.64,0.47-1.07,1.18-1.82,1.61l-2.12,1.14
							c-1.41,0.79-2.75,1.52-4.25,2.25c-1.52,0.65-3.07,1.06-4.61,1.48C115.78,63.92,114.25,64.64,112.61,64.63z"/>
					</g>
					<g>
						<path class="st0" d="M96,58.73c0.09,0.69,0.77,1,1.32,1.29c0.59,0.28,1.21,0.47,1.83,0.69c1.24,0.42,2.53,0.73,3.79,1.19
							c2.45,0.86,5.06,1.37,7.55,2.55l1.06,0.51l-1.11,0.38c-0.77,0.26-1.43,0.59-2.01,1.14c-0.58,0.55-1.31,1.16-2.06,1.55
							c-1.51,0.84-3.15,1.31-4.81,1.6c1.57-0.58,3.11-1.26,4.47-2.15c0.7-0.45,1.22-0.98,1.82-1.62c0.61-0.64,1.45-1.12,2.26-1.42
							l-0.04,0.88c-1.15-0.54-2.41-0.91-3.66-1.32c-1.26-0.39-2.53-0.78-3.78-1.29l-3.68-1.48c-0.62-0.26-1.22-0.56-1.79-0.93
							c-0.29-0.18-0.56-0.39-0.79-0.64C96.14,59.4,95.95,59.07,96,58.73z"/>
					</g>
					<g>
						<path class="st0" d="M101.7,69.53c-1.22-1.03-2.66-1.66-4.05-2.4c-1.4-0.73-2.84-1.45-4.11-2.56
							c-0.62-0.55-1.19-1.35-1.39-2.21c-0.21-0.87-0.12-1.78,0.12-2.56c0.14-0.41,0.2-0.74,0.44-1.2c0.25-0.42,0.65-0.69,1.02-0.86
							c0.78-0.32,1.54-0.49,2.33-0.65c-0.7,0.37-1.47,0.65-2.09,1.08c-0.31,0.2-0.57,0.45-0.68,0.74c-0.1,0.26-0.19,0.72-0.26,1.07
							c-0.34,1.49,0.04,2.92,1.18,3.86c1.1,1,2.5,1.76,3.82,2.63C99.36,67.3,100.76,68.22,101.7,69.53z"/>
					</g>
					<g>
						<path class="st0" d="M91.21,61.39c-4.42,1.09-8.73,2.49-13.05,3.88c-4.32,1.39-8.72,2.65-13.21,3.53
							c-2.22,0.41-4.42,0.9-6.54,1.61c-2.12,0.7-4.13,1.71-5.81,3.14c-1.7,1.42-2.95,3.33-4.23,5.19c-0.63,0.92-1.19,1.91-1.4,3
							c-0.21,1.09,0.03,2.24,0.57,3.24c-0.63-0.94-0.99-2.11-0.83-3.28c0.14-1.17,0.67-2.24,1.25-3.22c1.2-1.92,2.4-3.91,4.14-5.5
							c1.71-1.61,3.86-2.66,6.02-3.43c2.18-0.77,4.42-1.29,6.66-1.74c4.45-0.79,8.8-2.04,13.17-3.28c2.19-0.61,4.38-1.23,6.58-1.79
							C86.74,62.23,88.96,61.73,91.21,61.39z"/>
					</g>
					<g>
						<path class="st0" d="M132.89,60.86c2.49,0.16,4.97,0.49,7.44,0.84c2.47,0.38,4.93,0.82,7.38,1.25
							c4.91,0.88,9.8,1.75,14.76,2.18c2.49,0.27,4.99,0.66,7.43,1.3c2.44,0.64,4.85,1.56,6.98,2.95c2.14,1.37,4,3.07,5.86,4.73
							c0.92,0.86,1.81,1.77,2.49,2.84c0.69,1.06,1.04,2.38,0.79,3.61c0.14-1.25-0.3-2.48-1.01-3.47c-0.72-1-1.64-1.83-2.59-2.62
							c-1.91-1.59-3.82-3.2-5.94-4.45c-4.23-2.53-9.2-3.42-14.11-3.91c-4.98-0.52-9.92-1.39-14.8-2.43
							C142.69,62.67,137.83,61.6,132.89,60.86z"/>
					</g>
					<g>
						<path class="st0" d="M67.99,84.16c-0.26,1.28-0.56,2.56-0.67,3.85c-0.12,1.29,0.06,2.59,0.61,3.73
							c1.08,2.34,3.46,3.68,5.19,5.74c0.87,1.01,1.67,2.17,2.02,3.54c0.38,1.36,0.2,2.84-0.27,4.11c-1.02,2.49-2.26,4.77-3.37,7.13
							c-1.14,2.34-2.2,4.71-2.83,7.2c-0.29,1.24-0.5,2.51-0.49,3.77c0.03,0.63,0.03,1.27,0.16,1.89c0.09,0.63,0.21,1.24,0.44,1.82
							c0.87,2.37,2.73,4.31,4.8,5.82c2.08,1.55,4.44,2.71,6.86,3.7c-2.5-0.78-4.92-1.85-7.14-3.3c-2.18-1.47-4.2-3.4-5.24-5.95
							c-1-2.57-0.87-5.38-0.27-7.97c0.62-2.6,1.69-5.05,2.82-7.42c1.14-2.35,2.43-4.67,3.42-7.02c0.44-1.16,0.6-2.41,0.29-3.58
							c-0.29-1.18-0.98-2.27-1.77-3.26c-0.81-1-1.74-1.88-2.69-2.79c-0.95-0.93-1.82-1.99-2.36-3.23c-0.53-1.26-0.63-2.65-0.43-3.95
							C67.24,86.67,67.63,85.42,67.99,84.16z"/>
					</g>
					<g>
						<path class="st0" d="M160.88,80.84c-0.02,1.43-0.08,2.85-0.06,4.28c-0.02,1.42-0.02,2.85,0,4.27c0.03,2.85,0.04,5.7-0.02,8.56
							c-0.08,2.85-0.27,5.75-0.66,8.54c-0.11,1.32,0.37,2.68,1.06,3.88c0.68,1.22,1.64,2.28,2.73,3.21
							c-1.22-0.74-2.29-1.76-3.14-2.94c-0.81-1.21-1.43-2.62-1.42-4.18c0.21-2.89,0.37-5.68,0.43-8.53
							c0.09-2.84,0.11-5.69,0.26-8.55C160.18,86.52,160.4,83.66,160.88,80.84z"/>
					</g>
					<g>
						<path class="st0" d="M79.05,136.1c1.49,0.41,2.98,0.8,4.5,1.04c1.51,0.28,3.03,0.49,4.56,0.63c3.06,0.3,6.13,0.48,9.2,0.59
							l9.25,0.33c3.09,0.13,6.18,0.27,9.25,0.62l-9.27,0.15c-3.09,0.05-6.18,0.01-9.28-0.1c-3.09-0.14-6.19-0.34-9.26-0.83
							C84.95,138.05,81.88,137.37,79.05,136.1z"/>
					</g>
					<g>
						<path class="st0" d="M115.27,66.73c0.18,2.96,0.72,5.86,1.36,8.75c0.6,2.89,1.23,5.8,1.51,8.78c0.29,2.97,0.07,6.07-0.85,8.93
							c-0.81,2.81-1.25,5.71-1.43,8.64c-0.43,5.86,0.21,11.76,0.46,17.68c0.11,2.96,0.17,5.95-0.06,8.9
							c-0.09,1.47-0.14,2.94,0.05,4.4c0.19,1.45,0.65,2.88,1.46,4.12c-0.9-1.18-1.47-2.61-1.72-4.08c-0.27-1.47-0.3-2.98-0.28-4.46
							c0.13-2.96-0.01-5.89-0.22-8.84c-0.41-5.88-1.05-11.81-0.68-17.79c0.21-2.98,0.7-5.95,1.56-8.83
							c0.93-2.78,1.11-5.69,0.96-8.62C117,78.47,115.18,72.68,115.27,66.73z"/>
					</g>
					<g>
						<path class="st0" d="M109.18,68.15c1.17,2.63,1.81,5.47,2.11,8.34c0.28,2.87,0.23,5.77,0.09,8.63
							c-0.13,2.88-0.35,5.71-0.49,8.59c-0.17,2.87-0.42,5.73-0.66,8.58c-0.55,5.7-1.05,11.4-1.1,17.11
							c-0.03,2.86,0.03,5.71,0.57,8.51c0.47,2.82,1.22,5.59,1.68,8.43c-0.69-2.79-1.53-5.52-2.16-8.33c-0.65-2.82-0.8-5.73-0.86-8.6
							c-0.11-5.76,0.4-11.5,0.87-17.21c0.27-2.85,0.54-5.7,0.74-8.56c0.18-2.85,0.39-5.73,0.63-8.57c0.23-2.85,0.36-5.7,0.19-8.55
							C110.67,73.68,110.14,70.85,109.18,68.15z"/>
					</g>
					<g>
						<path class="st0" d="M67.1,88.25l-5.39-0.61c-1.8-0.18-3.6-0.39-5.39-0.65c-1.79-0.3-3.58-0.65-5.36-1.01
							c-1.8-0.31-3.49-0.92-5.27-1.07l0.17-0.05c-0.47,0.32-0.94,0.65-1.34,1.06c-0.2,0.2-0.38,0.43-0.5,0.68
							c-0.13,0.25-0.19,0.54-0.09,0.82c-0.15-0.26-0.15-0.59-0.06-0.88c0.09-0.29,0.25-0.56,0.43-0.8c0.36-0.49,0.78-0.92,1.25-1.3
							l0.06-0.05l0.11,0c1.85,0,3.66,0.44,5.43,0.7c1.78,0.29,3.55,0.61,5.32,0.95c1.78,0.29,3.57,0.57,5.35,0.93
							C63.59,87.3,65.37,87.69,67.1,88.25z"/>
					</g>
					<g>
						<path class="st0" d="M43.68,87.32c0.11,0.23,0.37,0.31,0.6,0.36c0.23,0.06,0.48,0.07,0.72,0.09c0.49,0.02,0.98,0,1.48-0.03
							c0.99-0.05,2-0.05,2.99-0.03c2,0.04,3.99,0.19,5.98,0.48c1.99,0.31,3.94,0.78,5.85,1.35l5.71,1.73
							c-4-0.35-7.83-1.53-11.71-2.08c-1.94-0.3-3.91-0.5-5.88-0.69c-0.99-0.09-1.97-0.19-2.96-0.26c-0.5-0.05-1-0.1-1.5-0.2
							c-0.25-0.05-0.5-0.11-0.74-0.21C44,87.72,43.75,87.57,43.68,87.32z"/>
					</g>
					<g>
						<path class="st0" d="M43.6,87.39c0.37,0.24,0.75,0.26,1.13,0.37c0.38,0.09,0.75,0.2,1.13,0.3c0.76,0.24,1.49,0.49,2.26,0.96
							c-0.43,0.18-0.87,0.21-1.29,0.2c-0.43-0.01-0.85-0.09-1.26-0.2c-0.4-0.13-0.8-0.3-1.17-0.55
							C44.06,88.22,43.63,87.89,43.6,87.39z"/>
					</g>
					<g>
						<path class="st0" d="M47.53,87.95c0,4.6-0.84,9.16-1.49,13.68l-0.45,3.39l-0.18,1.7c-0.04,0.58-0.13,1.13-0.08,1.64
							c0.07,1.07,0.43,2.17,0.53,3.39c0.07,1.23-0.06,2.34,0.02,3.44c0.03,0.54,0.1,1.09,0.25,1.57c0.15,0.47,0.41,0.93,0.73,1.37
							c0.64,0.87,1.46,1.67,2.27,2.49c1.7,1.63,2.86,3.72,4.22,5.47c1.39,1.75,3.27,3.14,4.72,4.98c0.35,0.47,0.68,0.98,0.89,1.53
							c0.22,0.55,0.33,1.13,0.49,1.66c0.27,1.1,1.05,2,2.04,2.6c-0.51-0.27-1-0.59-1.4-1.01c-0.4-0.43-0.69-0.96-0.89-1.51
							c-0.2-0.55-0.35-1.1-0.58-1.6c-0.23-0.5-0.56-0.95-0.93-1.37c-1.47-1.71-3.39-3.01-4.93-4.8c-0.77-0.88-1.43-1.85-2.09-2.76
							c-0.66-0.93-1.38-1.76-2.19-2.56c-0.8-0.81-1.65-1.6-2.38-2.56c-0.36-0.48-0.69-1.02-0.9-1.64c-0.2-0.61-0.28-1.21-0.32-1.81
							c-0.07-1.19,0.08-2.37,0.03-3.43c-0.07-1.07-0.42-2.18-0.48-3.41c-0.04-0.63,0.06-1.22,0.11-1.78l0.21-1.72
							c0.15-1.14,0.34-2.28,0.55-3.41l1.26-6.76C46.99,92.5,47.31,90.24,47.53,87.95z"/>
					</g>
					<g>
						<path class="st0" d="M68.54,118.73c-0.53-0.18-1.04-0.48-1.45-0.9c-0.4-0.42-0.71-0.92-0.97-1.45
							c-0.46-1.07-0.68-2.21-0.88-3.32c-0.1-0.55-0.19-1.11-0.31-1.61c-0.15-0.53-0.28-1.16-0.28-1.76
							c-0.02-1.23,0.38-2.38,0.8-3.43c0.94-2.08,1.72-4.07,2.12-6.26c0.42-2.17,0.53-4.41,0.68-6.65c0.14,1.12,0.2,2.24,0.24,3.37
							c0.01,1.13-0.04,2.27-0.17,3.4c-0.12,1.14-0.38,2.26-0.72,3.36c-0.34,1.1-0.82,2.14-1.24,3.16c-0.43,1.01-0.77,2.03-0.78,3.06
							c-0.02,0.53,0.06,1,0.19,1.56c0.13,0.59,0.16,1.15,0.22,1.71c0.1,1.11,0.23,2.21,0.57,3.24c0.17,0.51,0.4,1.01,0.71,1.45
							C67.63,118.09,68.05,118.45,68.54,118.73z"/>
					</g>
					<g>
						<path class="st0" d="M62.05,140.91c0.56,0.75,1.48,0.99,2.35,1.13c0.88,0.14,1.78,0.17,2.68,0.16c1.8-0.03,3.6-0.21,5.38-0.49
							c1.8-0.26,3.5-0.67,5.16-1.39c1.62-0.71,3.24-1.61,4.2-3.2c-0.28,0.88-0.87,1.66-1.55,2.31c-0.69,0.64-1.49,1.16-2.32,1.6
							c-0.83,0.43-1.69,0.81-2.6,1.08c-0.91,0.26-1.82,0.44-2.73,0.59c-1.84,0.27-3.7,0.41-5.56,0.28c-0.93-0.06-1.86-0.2-2.77-0.46
							c-0.45-0.14-0.89-0.33-1.3-0.58C62.58,141.69,62.22,141.34,62.05,140.91z"/>
					</g>
					<g>
						<path class="st1" d="M160.74,86.29c6.77-1.83,14.21-2.69,21.72-3.74c5.24-0.73,4.09-0.41,6.59,1.36
							c-5.19,0.2-10.66,1.52-15.33,2.44c-4.47,0.88-9.03,1.68-12.99,2.91"/>
						<path class="st0" d="M160.74,86.29c4.65-1.47,9.48-2.34,14.29-3.1c2.4-0.4,4.82-0.71,7.23-1.07c1.21-0.16,2.39-0.38,3.7-0.41
							c0.32-0.01,0.69,0.03,1.05,0.15c0.37,0.12,0.68,0.35,0.92,0.54c0.5,0.4,0.93,0.76,1.42,1.1l1.22,0.86l-1.49,0.05
							c-2.37,0.08-4.74,0.39-7.1,0.78c-2.36,0.38-4.71,0.9-7.08,1.32l-7.1,1.26c-2.37,0.41-4.72,0.89-7.05,1.49
							c2.27-0.82,4.61-1.4,6.95-1.97l7.05-1.53c2.34-0.54,4.7-1.03,7.08-1.46c2.38-0.42,4.78-0.76,7.22-0.88l-0.27,0.91
							c-0.51-0.36-1.01-0.79-1.45-1.15c-0.44-0.39-0.79-0.49-1.38-0.5c-1.13,0.01-2.36,0.21-3.56,0.36
							c-2.42,0.31-4.83,0.65-7.24,0.93c-2.41,0.3-4.82,0.62-7.22,1C165.51,85.31,163.12,85.77,160.74,86.29z"/>
					</g>
					<g>
						<path class="st0" d="M189.36,83.86c-0.07,0.51-0.5,0.89-0.87,1.16c-0.39,0.28-0.81,0.47-1.24,0.64
							c-0.87,0.29-1.77,0.45-2.73,0.28c0.77-0.6,1.58-0.92,2.4-1.22c0.41-0.14,0.82-0.27,1.23-0.39
							C188.55,84.19,188.95,84.12,189.36,83.86z"/>
					</g>
					<g>
						<path class="st0" d="M186.31,80.01c0.12,0.54,0.16,0.8,0.16,1.12c-0.02,0.32-0.06,0.63-0.29,1.13
							c-0.51-0.23-0.71-0.7-0.7-1.16C185.49,80.64,185.76,80.12,186.31,80.01z"/>
					</g>
					<g>
						<path class="st0" d="M184.66,84.63c0.12,2.87,1.41,5.46,2.17,8.22c0.19,0.69,0.34,1.4,0.44,2.11
							c0.09,0.72,0.11,1.46,0.07,2.17l-0.18,4.26c-0.1,2.82-0.06,5.67,0.64,8.36c0.17,0.72,0.22,1.6-0.04,2.33
							c-0.24,0.73-0.59,1.41-1.03,2.01c-0.84,1.22-1.85,2.24-2.81,3.29c-0.96,1.04-1.93,2.07-2.62,3.23
							c-0.33,0.56-0.73,1.27-1.16,1.84c-0.44,0.59-0.92,1.14-1.42,1.67c-1.99,2.11-4.28,3.82-6.31,5.76c-0.51,0.48-1,0.98-1.46,1.5
							c-0.23,0.26-0.45,0.53-0.67,0.79c-0.24,0.28-0.46,0.57-0.71,0.83c-0.98,1.07-2.06,2.03-3.13,2.97
							c-1.07,0.94-2.15,1.85-3.17,2.82c-1.02,0.96-1.97,1.99-2.64,3.17l-0.1,0.18l-0.2,0.01c-3.64,0.27-7.29-0.04-10.87-0.49
							c-1.79-0.23-3.59-0.52-5.35-0.94c-0.88-0.2-1.76-0.48-2.6-0.79c-0.43-0.15-0.85-0.31-1.28-0.44
							c-0.21-0.07-0.43-0.13-0.65-0.17c-0.19-0.04-0.53-0.06-0.52,0.22c-0.02-0.12,0.06-0.23,0.18-0.25
							c0.11-0.02,0.23-0.02,0.34-0.01c0.23,0.03,0.45,0.08,0.67,0.13c0.44,0.11,0.87,0.25,1.3,0.38c0.86,0.27,1.72,0.51,2.61,0.67
							c1.77,0.35,3.56,0.56,5.35,0.72c3.59,0.34,7.19,0.57,10.76,0.22l-0.3,0.2c1.46-2.63,3.8-4.41,5.89-6.3
							c1.06-0.94,2.11-1.89,3.03-2.92c0.24-0.25,0.44-0.53,0.67-0.79c0.23-0.28,0.46-0.57,0.7-0.84c0.48-0.54,0.99-1.06,1.5-1.56
							c2.07-1.99,4.32-3.75,6.26-5.75c0.48-0.5,0.94-1.02,1.35-1.57c0.43-0.57,0.72-1.09,1.12-1.76c0.78-1.28,1.8-2.32,2.77-3.36
							c0.97-1.04,1.97-2.04,2.75-3.16c0.8-1.11,1.33-2.37,0.97-3.64c-0.66-2.84-0.63-5.76-0.45-8.59l0.28-4.25
							c0.05-0.71,0.05-1.39,0-2.09c-0.07-0.69-0.19-1.39-0.35-2.07C185.82,90.21,184.61,87.51,184.66,84.63z"/>
					</g>
					<g>
						<path class="st0" d="M160.6,89.14c0.65,2.59,1.24,5.19,1.87,7.78l0.88,3.91l0.45,1.94c0.14,0.6,0.42,1.18,0.73,1.75
							c0.62,1.14,1.44,2.21,2,3.5c0.28,0.64,0.49,1.35,0.49,2.11c0.02,0.76-0.32,1.51-0.68,2.1c-1.45,2.33-3.32,4.27-4.92,6.36
							c-0.82,1.03-1.57,2.1-2.15,3.25c-0.58,1.18-1.1,2.4-1.64,3.62c-1.07,2.44-2.25,4.93-4.04,7.01c-0.85,1.05-1.96,1.97-3.14,2.64
							c-1.18,0.68-2.43,1.2-3.7,1.65c-2.54,0.86-5.13,1.52-7.71,2.18c2.52-0.88,5.09-1.64,7.54-2.64c2.45-0.97,4.86-2.21,6.41-4.31
							c1.61-2.06,2.77-4.43,3.8-6.88c0.52-1.22,1.03-2.46,1.62-3.68c0.61-1.24,1.39-2.38,2.22-3.44c1.67-2.12,3.54-4.03,4.94-6.23
							c0.33-0.54,0.57-1.05,0.57-1.64c0.01-0.58-0.15-1.18-0.39-1.76c-0.5-1.17-1.27-2.26-1.89-3.48c-0.31-0.61-0.6-1.25-0.73-1.96
							l-0.38-1.97L162,97.02C161.53,94.4,161.04,91.78,160.6,89.14z"/>
					</g>
					<g>
						<path class="st0" d="M115.13,139.38c2.14-0.28,4.27-0.46,6.41-0.62c2.13-0.17,4.27-0.26,6.4-0.35
							c2.13-0.06,4.29-0.15,6.43-0.15c1.08-0.01,2.13,0.03,3.2,0c1.07,0.02,2.15-0.03,3.22,0.09c-1.07,0.11-2.12,0.25-3.19,0.4
							c-1.07,0.12-2.16,0.17-3.21,0.28c-2.13,0.18-4.25,0.29-6.4,0.38c-2.14,0.07-4.29,0.13-6.43,0.12
							C119.41,139.52,117.27,139.51,115.13,139.38z"/>
					</g>
					<g>
						<path class="st0" d="M62.64,141.69c-1.54,1.56-2.6,3.53-2.99,5.64c-0.45,2.1-0.25,4.28,0.05,6.41
							c0.33,2.14,0.77,4.28,1.01,6.49c0.06,0.53,0.08,1.15,0.13,1.63c0.05,0.47,0.21,0.94,0.43,1.4c0.45,0.92,1.12,1.79,1.68,2.77
							c0.27,0.51,0.54,0.99,0.67,1.66c0.12,0.64,0.03,1.25-0.08,1.8c-0.23,1.09-0.46,2.11,0.02,2.85c0.24,0.38,0.64,0.74,1.04,1.12
							c0.38,0.39,0.87,0.81,1.04,1.56c0.11,0.78-0.2,1.33-0.47,1.84c-0.29,0.49-0.6,0.93-0.78,1.38c-0.19,0.44-0.21,0.88-0.04,1.32
							c0.18,0.45,0.49,0.89,0.78,1.36c0.28,0.47,0.61,0.99,0.63,1.66c0.01,0.33-0.12,0.67-0.29,0.92c-0.17,0.25-0.37,0.46-0.58,0.65
							c-0.82,0.76-1.78,1.33-2.43,2.15c-0.15,0.21-0.28,0.44-0.28,0.67c0.01,0.24,0.16,0.45,0.36,0.62
							c0.41,0.34,0.93,0.54,1.44,0.72c-0.53-0.13-1.06-0.28-1.54-0.6c-0.23-0.16-0.44-0.41-0.47-0.73c-0.02-0.32,0.11-0.6,0.27-0.84
							c0.66-0.94,1.58-1.57,2.31-2.35c0.36-0.39,0.7-0.78,0.65-1.21c-0.02-0.44-0.3-0.89-0.6-1.33c-0.3-0.44-0.65-0.88-0.9-1.44
							c-0.26-0.57-0.25-1.3-0.03-1.87c0.21-0.57,0.53-1.04,0.77-1.5c0.24-0.43,0.43-0.95,0.36-1.26c-0.06-0.34-0.43-0.73-0.81-1.08
							c-0.38-0.37-0.83-0.73-1.19-1.27c-0.38-0.57-0.47-1.23-0.45-1.84c0.03-0.6,0.16-1.16,0.25-1.68c0.09-0.52,0.15-1.01,0.06-1.45
							c-0.07-0.41-0.33-0.91-0.58-1.35c-0.5-0.92-1.17-1.8-1.67-2.85c-0.25-0.53-0.44-1.11-0.5-1.72c-0.05-0.61-0.05-1.08-0.1-1.64
							c-0.19-2.14-0.66-4.28-0.87-6.48c-0.21-2.18-0.33-4.45,0.24-6.62C59.74,145.06,60.95,143.08,62.64,141.69z"/>
					</g>
					<g>
						<path class="st0" d="M64.37,188.33c-0.75,0.45-1.49,0.91-2.1,1.52c-0.61,0.6-1.09,1.31-1.35,2.11
							c-0.57,1.59-0.26,3.32-0.29,5.11c-0.18,3.53-0.91,6.98-0.13,10.27c0.17,0.82,0.49,1.59,0.86,2.32
							c0.38,0.75,0.92,1.3,1.45,2.14c0.49,0.81,0.78,1.79,0.72,2.74c-0.03,0.95-0.31,1.83-0.62,2.66c-0.31,0.83-0.64,1.63-0.9,2.44
							c-0.28,0.85-0.62,1.64-0.81,2.46c-0.2,0.81-0.2,1.68,0.24,2.4c0.42,0.73,1.19,1.22,1.96,1.61c-0.81-0.3-1.65-0.7-2.18-1.47
							c-0.56-0.75-0.65-1.75-0.5-2.64c0.15-0.89,0.46-1.73,0.69-2.55c0.23-0.86,0.53-1.69,0.78-2.51c0.25-0.82,0.46-1.64,0.47-2.43
							c0.02-0.8-0.23-1.55-0.65-2.22c-0.41-0.63-1.08-1.36-1.5-2.17c-0.43-0.81-0.79-1.67-0.98-2.56c-0.82-3.59,0-7.16,0.33-10.54
							c0.13-1.67-0.12-3.53,0.6-5.25C61.19,190.06,62.77,188.98,64.37,188.33z"/>
					</g>
					<g>
						<path class="st0" d="M80.25,227.17c-0.2-0.13-0.4-0.25-0.58-0.42c-0.08-0.09-0.18-0.17-0.22-0.31
							c-0.06-0.12-0.02-0.3,0.07-0.39c0.38-0.38,0.87-0.47,1.31-0.64c0.45-0.16,0.9-0.31,1.3-0.52c0.39-0.22,0.76-0.5,1.05-0.84
							c0.62-0.65,0.9-1.53,0.96-2.43c0.07-0.91-0.04-1.84-0.12-2.8c-0.04-0.48-0.07-0.97-0.06-1.47c0.01-0.51,0.15-1.05,0.28-1.49
							c0.25-0.93,0.53-1.85,0.84-2.76c0.6-1.82,1.26-3.61,1.9-5.4c1.34-3.55,2.58-7.15,2.97-10.88c0.24-1.85,0-3.76,0.27-5.71
							c0.26-1.96,1.38-3.71,2.84-4.92c-0.65,0.7-1.22,1.46-1.64,2.3c-0.43,0.84-0.64,1.75-0.71,2.68c-0.16,1.85,0.16,3.77,0.01,5.71
							c-0.25,3.89-1.54,7.57-2.8,11.16c-0.67,1.79-1.36,3.56-1.98,5.35c-0.31,0.89-0.61,1.79-0.87,2.7
							c-0.14,0.47-0.25,0.86-0.27,1.3c-0.03,0.45-0.03,0.91-0.01,1.38c0.03,0.94,0.11,1.92-0.02,2.91
							c-0.11,0.98-0.48,2.01-1.24,2.71c-0.19,0.17-0.37,0.34-0.59,0.47c-0.21,0.14-0.42,0.27-0.65,0.37
							c-0.46,0.2-0.93,0.31-1.39,0.43c-0.45,0.13-0.95,0.21-1.28,0.49c-0.16,0.14-0.06,0.38,0.09,0.55
							C79.88,226.88,80.07,227.03,80.25,227.17z"/>
					</g>
					<g>
						<path class="st0" d="M93.27,186.77c0.49-3.7,1.32-7.36,2.55-10.9c0.63-1.76,1.37-3.49,2.2-5.17c0.81-1.67,1.6-3.37,2.51-5.02
							c1.78-3.3,4.2-6.37,7.3-8.6c1.55-1.11,3.22-2.02,4.99-2.74c1.77-0.72,3.77-1.09,5.73-0.77c1.97,0.3,3.74,1.39,5.09,2.78
							c1.36,1.39,2.33,3.09,3.11,4.8c1.57,3.47,2.36,7.18,3.14,10.81c0.81,3.62,1.69,7.27,3.81,10.32c2.03,3.1,4.84,5.62,7.81,7.87
							c-3.1-2.06-6-4.52-8.21-7.59c-1.09-1.54-1.97-3.24-2.59-5.02c-0.63-1.77-1.12-3.59-1.56-5.4c-0.9-3.62-1.66-7.27-3.22-10.6
							c-0.77-1.66-1.71-3.24-2.97-4.52c-1.25-1.27-2.83-2.21-4.57-2.46c-1.73-0.3-3.54,0.01-5.22,0.68
							c-1.69,0.67-3.32,1.54-4.81,2.59c-3,2.11-5.31,5.06-7.16,8.24c-0.93,1.6-1.75,3.27-2.61,4.93c-0.87,1.64-1.63,3.33-2.31,5.06
							C94.91,179.49,93.98,183.11,93.27,186.77z"/>
					</g>
					<g>
						<path class="st0" d="M140.55,189.81c0.73,0.5,1.34,1.18,1.78,1.97c0.43,0.79,0.69,1.67,0.9,2.53c0.2,0.87,0.34,1.73,0.62,2.54
							c0.28,0.85,0.51,1.71,0.72,2.57c0.43,1.72,0.72,3.45,1.23,5.11c0.24,0.84,0.57,1.58,0.84,2.51c0.24,0.9,0.36,1.79,0.47,2.67
							c0.19,1.74,0.4,3.46,1.25,4.88c0.42,0.69,0.95,1.37,1.61,1.79c0.7,0.45,1.51,0.82,2.28,1.32c0.38,0.26,0.79,0.53,1.08,0.99
							c0.33,0.44,0.31,1.12,0.12,1.56c-0.18,0.45-0.43,0.82-0.57,1.19c-0.15,0.36-0.14,0.74-0.02,1.12c0.24,0.77,0.87,1.43,1.4,2.13
							c0.53,0.68,1.1,1.49,1.04,2.4c-0.05-0.9-0.66-1.6-1.24-2.23c-0.58-0.65-1.28-1.24-1.66-2.14c-0.18-0.44-0.21-1-0.05-1.47
							c0.15-0.46,0.38-0.85,0.5-1.22c0.3-0.74-0.26-1.26-1.01-1.68c-0.73-0.42-1.55-0.75-2.34-1.24c-0.84-0.51-1.44-1.25-1.95-2.04
							c-1-1.63-1.22-3.52-1.43-5.25c-0.1-0.87-0.21-1.73-0.42-2.53c-0.21-0.76-0.59-1.65-0.81-2.51c-0.47-1.74-0.76-3.48-1.07-5.21
							c-0.16-0.86-0.34-1.71-0.57-2.55c-0.25-0.88-0.36-1.77-0.5-2.62c-0.13-0.86-0.31-1.71-0.65-2.51
							C141.74,191.11,141.22,190.39,140.55,189.81z"/>
					</g>
					<g>
						<path class="st0" d="M175.58,227.67c0.69-3.35,0.82-6.8,0.12-10.09c-0.36-1.64-0.86-3.25-1.54-4.79
							c-0.33-0.77-0.7-1.53-1.1-2.27c-0.2-0.36-0.39-0.79-0.58-1.19c-0.19-0.41-0.3-0.84-0.46-1.27c-0.47-1.74-0.46-3.54-0.31-5.26
							c0.17-1.73,0.42-3.41,0.51-5.08c0.1-1.65-0.08-3.39-0.75-4.86c-0.4-0.73-0.93-1.42-1.32-2.2c-0.19-0.39-0.38-0.8-0.41-1.25
							c-0.04-0.45,0.15-0.9,0.49-1.17c-0.3,0.31-0.42,0.75-0.34,1.15c0.07,0.41,0.28,0.78,0.5,1.13c0.45,0.71,1.02,1.34,1.51,2.08
							c0.85,1.61,1.09,3.38,1.09,5.12c0,3.48-0.9,6.88-0.01,10.06c0.14,0.38,0.24,0.78,0.4,1.15c0.18,0.37,0.32,0.72,0.54,1.12
							c0.4,0.77,0.78,1.55,1.11,2.36c0.65,1.61,1.16,3.29,1.43,5.01c0.28,1.72,0.33,3.47,0.19,5.19
							C176.47,224.35,176.13,226.04,175.58,227.67z"/>
					</g>
					<g>
						<path class="st0" d="M170.22,188.83c0.05-0.43-0.22-0.78-0.52-1.03c-0.3-0.26-0.66-0.46-1.02-0.64
							c-0.73-0.36-1.49-0.66-2.25-1.02c-0.38-0.18-0.75-0.38-1.1-0.63c-0.36-0.23-0.71-0.59-0.92-1.01
							c-0.4-0.78-0.57-1.67-0.56-2.54c0.01-0.87,0.19-1.72,0.43-2.53c0.05-0.19,0.14-0.42,0.17-0.58c0.05-0.16,0.05-0.31,0.05-0.47
							c-0.02-0.32-0.14-0.64-0.32-0.97c-0.34-0.67-0.91-1.32-1.19-2.27c-0.14-0.47-0.12-1.04,0.07-1.51
							c0.18-0.46,0.34-0.76,0.5-1.15c1.33-2.96,2.09-6.12,1.8-9.36c-0.09-1.62-0.29-3.27-0.27-4.94c0.03-1.66,0.32-3.36,1.11-4.82
							c-0.57,1.55-0.75,3.19-0.62,4.81c0.08,1.62,0.36,3.24,0.54,4.89c0.22,1.64,0.18,3.37-0.13,5.03
							c-0.31,1.66-0.86,3.26-1.52,4.79c-0.15,0.37-0.38,0.79-0.49,1.1c-0.12,0.3-0.14,0.59-0.05,0.91c0.17,0.65,0.69,1.29,1.09,2.09
							c0.2,0.4,0.37,0.86,0.39,1.37c0,0.25-0.03,0.51-0.1,0.75c-0.06,0.24-0.13,0.4-0.19,0.6c-0.24,0.76-0.45,1.53-0.5,2.3
							c-0.05,0.77,0.05,1.54,0.36,2.25c0.26,0.64,0.99,1.08,1.68,1.48c0.7,0.41,1.44,0.78,2.15,1.22c0.35,0.22,0.7,0.45,1,0.76
							C170.09,187.98,170.33,188.41,170.22,188.83z"/>
					</g>
					<g>
						<path class="st0" d="M165.82,153.6c0.22-0.24,0.44-0.54,0.39-0.8c-0.05-0.26-0.29-0.5-0.49-0.77
							c-0.41-0.63-0.65-1.19-0.94-1.83c-0.27-0.63-0.47-1.33-0.52-2.07c-0.02-0.37,0.02-0.75,0.09-1.1l0.19-0.98
							c0.27-1.29,0.52-2.56,0.49-3.82c-0.03-1.26-0.43-2.5-1.14-3.65c1.01,0.88,1.75,2.18,1.92,3.58c0.2,1.4-0.03,2.79-0.29,4.1
							l-0.22,0.98c-0.07,0.3-0.09,0.58-0.1,0.88c-0.02,0.6,0.13,1.2,0.3,1.83l0.3,0.94c0.11,0.32,0.19,0.63,0.32,0.9
							c0.12,0.29,0.35,0.6,0.34,1.02C166.44,153.22,166.1,153.44,165.82,153.6z"/>
					</g>
					<g>
						<path class="st0" d="M112.22,139.06c0.53,1.68,0.62,3.43,0.6,5.14c-0.05,1.72-0.21,3.41-0.6,5.12
							c-0.4-1.71-0.42-3.44-0.4-5.14C111.88,142.47,111.97,140.8,112.22,139.06z"/>
					</g>
					<g>
						<path class="st0" d="M109.16,150.31c1.65-0.21,3.32-0.25,4.93-0.35c0.8-0.07,1.59-0.16,2.3-0.42
							c0.71-0.25,1.32-0.67,1.83-1.23c0.51-0.55,0.9-1.19,1.09-1.91c0.21-0.72,0.2-1.5,0.16-2.31c-0.04-0.81-0.12-1.65-0.06-2.5
							c0.08-0.85,0.31-1.71,0.85-2.37c-0.71,1.56-0.24,3.15-0.01,4.79c0.13,0.83,0.17,1.72-0.02,2.61c-0.19,0.89-0.68,1.7-1.27,2.37
							c-0.61,0.65-1.4,1.18-2.26,1.45c-0.86,0.25-1.73,0.32-2.57,0.3C112.43,150.71,110.81,150.49,109.16,150.31z"/>
					</g>
					<g>
						<path class="st0" d="M115.28,151.22c0.72-0.16,1.39-0.24,2.03-0.44c0.63-0.19,1.24-0.41,1.79-0.74
							c0.56-0.31,1.05-0.72,1.5-1.19c0.45-0.48,0.86-1.01,1.18-1.66c0.08,0.74-0.17,1.49-0.56,2.13c-0.39,0.65-0.97,1.19-1.63,1.58
							c-0.67,0.38-1.41,0.6-2.16,0.64C116.7,151.61,115.96,151.47,115.28,151.22z"/>
					</g>
					<g>
						<path class="st0" d="M136.72,154.5c3.66-0.36,7.3-0.41,10.93-0.58c3.63-0.14,7.24-0.43,10.89-0.73
							c-3.51,1.08-7.19,1.57-10.85,1.73C144.03,155.06,140.37,154.93,136.72,154.5z"/>
					</g>
					<g>
						<path class="st0" d="M130.41,156.39c3.95-0.33,7.9-0.11,11.81-0.04c3.92,0.1,7.81,0.05,11.73-0.46
							c-3.76,1.28-7.81,1.53-11.75,1.45C138.24,157.25,134.33,156.85,130.41,156.39z"/>
					</g>
					<g>
						<path class="st0" d="M64.75,153.76c1.89-0.1,3.78-0.01,5.66,0.19c1.88,0.19,3.73,0.49,5.58,0.72
							c1.85,0.25,3.69,0.42,5.55,0.49c1.86,0.06,3.72,0.02,5.61-0.08c-1.82,0.49-3.71,0.79-5.61,0.86c-1.9,0.09-3.81-0.04-5.68-0.28
							c-1.88-0.25-3.72-0.59-5.56-0.94C68.45,154.39,66.62,154.05,64.75,153.76z"/>
					</g>
					<g>
						<path class="st0" d="M68.96,160.33c2.07-0.71,4.18-1.31,6.3-1.85c2.12-0.55,4.27-0.99,6.43-1.36
							c2.17-0.34,4.35-0.61,6.55-0.69c1.1-0.04,2.2-0.05,3.29-0.04c1.1,0.05,2.19,0.11,3.28,0.24c-1.09,0.09-2.18,0.13-3.27,0.25
							c-1.08,0.08-2.17,0.18-3.24,0.32c-2.16,0.26-4.3,0.55-6.45,0.91c-2.15,0.34-4.28,0.74-6.43,1.12
							C73.27,159.61,71.13,160.02,68.96,160.33z"/>
					</g>
					<g>
						<path class="st0" d="M65.32,155.73c1.05-0.19,2.12-0.2,3.18-0.14c1.06,0.06,2.1,0.21,3.14,0.38c2.07,0.37,4.08,0.84,6.13,1.4
							c-2.13,0.23-4.24-0.08-6.3-0.42C69.41,156.59,67.4,156.16,65.32,155.73z"/>
					</g>
					<g>
						<path class="st0" d="M74.51,185.62c2.79-0.26,5.55-0.32,8.32-0.43c2.77-0.08,5.53-0.19,8.33-0.07
							c-2.73,0.66-5.51,0.96-8.3,1.06C80.07,186.27,77.27,186.15,74.51,185.62z"/>
					</g>
					<g>
						<path class="st0" d="M70.87,191.12c2.73-1.33,5.61-2.28,8.51-3.07c2.92-0.77,5.88-1.39,8.91-1.61
							c-2.86,0.99-5.75,1.78-8.65,2.57C76.74,189.78,73.85,190.54,70.87,191.12z"/>
					</g>
					<g>
						<path class="st0" d="M65.71,187.02c1.33-0.46,2.68-0.62,4.06-0.6c1.36,0.05,2.8,0.29,3.98,1.09l-4.01-0.09
							C68.42,187.37,67.08,187.35,65.71,187.02z"/>
					</g>
					<g>
						<path class="st0" d="M64.17,193.51c2.93-0.45,5.83-0.76,8.78-0.92c2.94-0.13,5.93-0.11,8.83,0.51L73,193.58
							C70.08,193.71,67.12,193.84,64.17,193.51z"/>
					</g>
					<g>
						<path class="st0" d="M141.32,185.95c4.09,0.79,8.12,1.67,12.19,2.28c4.07,0.65,8.17,1.05,12.31,1.5
							c-4.15,0.35-8.34,0.13-12.46-0.51C149.24,188.57,145.18,187.5,141.32,185.95z"/>
					</g>
					<g>
						<path class="st0" d="M149.17,190.39c1.87-0.04,3.68,0.15,5.49,0.35c1.81,0.23,3.61,0.48,5.42,0.96
							c-1.85,0.31-3.71,0.24-5.54,0.03C152.71,191.49,150.89,191.12,149.17,190.39z"/>
					</g>
					<g>
						<path class="st0" d="M156.06,187.02c1.59-0.42,3.19-0.54,4.78-0.58c1.6-0.01,3.19,0.05,4.79,0.42
							c-1.6,0.42-3.19,0.54-4.78,0.58C159.25,187.45,157.66,187.39,156.06,187.02z"/>
					</g>
					<g>
						<path class="st0" d="M148.78,195.15c1.36-0.88,2.95-1.38,4.54-1.69c1.6-0.32,3.22-0.44,4.84-0.47
							c3.23-0.02,6.47,0.33,9.57,1.26c-3.22-0.14-6.39-0.3-9.56-0.26c-1.58,0.01-3.16,0.09-4.73,0.24
							C151.88,194.4,150.31,194.63,148.78,195.15z"/>
					</g>
					<g>
						<path class="st0" d="M156.06,222c2.43-0.92,4.93-1.61,7.52-1.98c1.29-0.17,2.61-0.28,3.93-0.17c1.29,0.1,2.72,0.4,3.68,1.34
							c-1.17-0.6-2.44-0.58-3.69-0.56c-1.26,0.06-2.52,0.2-3.77,0.38C161.19,221.34,158.67,221.85,156.06,222z"/>
					</g>
					<g>
						<path class="st0" d="M63.98,222.58c1.32-0.15,2.59-0.41,3.84-0.69c1.26-0.3,2.5-0.63,3.72-1.03c1.23-0.38,2.44-0.83,3.64-1.3
							c1.2-0.49,2.39-0.99,3.53-1.66c-0.9,0.98-2.03,1.74-3.2,2.36c-1.17,0.63-2.41,1.14-3.67,1.55
							C69.33,222.59,66.61,223.04,63.98,222.58z"/>
					</g>
					<g>
						<path class="st0" d="M63.79,223.64c0.13,0.39,0.55,0.48,0.91,0.55c0.37,0.07,0.76,0.07,1.14,0.07c0.77,0,1.54-0.06,2.31-0.12
							l4.64-0.44c1.55-0.14,3.11-0.28,4.67-0.35c1.56-0.05,3.16-0.15,4.71,0.21c-0.78,0-1.55,0.11-2.32,0.23l-2.31,0.33
							c-1.54,0.23-3.09,0.41-4.65,0.57c-1.56,0.14-3.13,0.25-4.71,0.22c-0.79-0.01-1.58-0.06-2.37-0.17
							c-0.39-0.08-0.79-0.15-1.17-0.3C64.27,224.32,63.81,224.08,63.79,223.64z"/>
					</g>
					<g>
						<path class="st0" d="M71.26,225.7c1.22-0.64,2.5-1,3.82-1.24c1.31-0.21,2.68-0.32,4.03,0.01c-1.3,0.46-2.56,0.74-3.86,0.98
							C73.95,225.65,72.64,225.83,71.26,225.7z"/>
					</g>
					<g>
						<path class="st0" d="M159.89,223.89c1.02-0.82,2.27-1.34,3.52-1.69c1.26-0.36,2.56-0.56,3.85-0.68
							c2.59-0.2,5.21-0.1,7.75,0.48c-2.59,0.21-5.13,0.29-7.66,0.51c-1.26,0.1-2.52,0.24-3.77,0.44
							C162.34,223.17,161.1,223.41,159.89,223.89z"/>
					</g>
					<g>
						<path class="st0" d="M62.81,226.12c-1.05-0.1-2.13-0.11-3.11,0.21c-0.48,0.17-0.94,0.42-1.3,0.76
							c-0.36,0.33-0.56,0.82-0.35,1.15c0.1,0.17,0.27,0.32,0.49,0.43c0.2,0.14,0.43,0.21,0.66,0.3c0.47,0.15,0.98,0.23,1.49,0.26
							c1.03,0.07,2.07,0.01,3.12-0.08c2.09-0.2,4.17-0.54,6.34-0.66c2.21-0.07,4.31,0.43,6.37,0.55c1.03,0.08,2.05,0.06,3.01-0.16
							c0.47-0.11,0.93-0.29,1.25-0.54c0.16-0.13,0.23-0.27,0.23-0.32c0.01-0.05-0.04-0.15-0.2-0.27c-0.33-0.23-0.82-0.39-1.31-0.5
							c-0.49-0.12-1-0.2-1.52-0.26c-1.04-0.13-2.08-0.23-3.13-0.32c-2.1-0.17-4.21-0.22-6.33-0.28c-2.12-0.09-4.24-0.14-6.35-0.35
							c2.12-0.02,4.24-0.07,6.35-0.14c2.12-0.04,4.24-0.07,6.37,0c1.07,0.03,2.13,0.1,3.2,0.23c0.53,0.06,1.07,0.13,1.61,0.25
							c0.54,0.13,1.09,0.26,1.64,0.63c0.26,0.17,0.6,0.53,0.59,1.03c-0.02,0.49-0.31,0.8-0.55,1.01c-0.51,0.42-1.07,0.61-1.62,0.76
							c-1.1,0.27-2.22,0.3-3.31,0.23c-2.17-0.16-4.23-0.68-6.28-0.64c-2.06,0.07-4.18,0.43-6.31,0.51
							c-1.07,0.05-2.15,0.07-3.23-0.06c-0.54-0.07-1.09-0.17-1.61-0.36c-0.26-0.11-0.53-0.21-0.76-0.39
							c-0.24-0.14-0.49-0.35-0.64-0.65c-0.16-0.3-0.14-0.68-0.01-0.96c0.12-0.29,0.32-0.51,0.54-0.7c0.44-0.36,0.95-0.59,1.47-0.74
							C60.68,225.81,61.77,225.92,62.81,226.12z"/>
					</g>
					<g>
						<path class="st0" d="M152.85,228.32c0.31-0.46,0.91-0.57,1.42-0.67c0.53-0.08,1.07-0.1,1.6-0.11c1.06-0.02,2.13,0,3.19,0.04
							c2.12,0.1,4.23,0.22,6.33,0.13c2.1-0.09,4.2-0.27,6.3-0.5c1.05-0.11,2.12-0.25,3.24-0.22c0.56,0.02,1.14,0.08,1.73,0.32
							c0.29,0.12,0.6,0.28,0.85,0.64c0.12,0.18,0.21,0.42,0.2,0.66c-0.01,0.24-0.09,0.45-0.2,0.62c-0.44,0.64-1.05,0.85-1.59,1.04
							c-0.55,0.17-1.1,0.26-1.65,0.32c-1.09,0.12-2.17,0.11-3.24,0.09l-6.35-0.21c-2.1-0.07-4.2,0.18-6.35,0.16
							c-1.07-0.02-2.16-0.17-3.18-0.49c-0.51-0.16-1.02-0.36-1.48-0.65c-0.23-0.14-0.44-0.32-0.62-0.52
							c-0.17-0.2-0.28-0.5-0.18-0.75c-0.07,0.27,0.06,0.53,0.24,0.71c0.18,0.18,0.4,0.33,0.63,0.44c0.46,0.24,0.96,0.4,1.47,0.52
							c1.02,0.24,2.06,0.31,3.11,0.26c2.09-0.07,4.21-0.42,6.35-0.44c2.14-0.07,4.26,0.06,6.37,0.07c1.05,0.01,2.1,0,3.11-0.13
							c0.5-0.06,1.01-0.15,1.46-0.3c0.45-0.14,0.88-0.38,1.04-0.64c0.06-0.13,0.06-0.13,0.02-0.21c-0.05-0.08-0.22-0.21-0.41-0.29
							c-0.39-0.17-0.89-0.24-1.38-0.26c-1-0.05-2.05,0.07-3.1,0.17c-2.11,0.19-4.24,0.39-6.38,0.36c-2.14,0-4.27-0.21-6.37-0.41
							c-1.05-0.11-2.11-0.2-3.16-0.26c-0.53-0.03-1.05-0.04-1.58,0C153.77,227.85,153.2,227.9,152.85,228.32z"/>
					</g>
					<g>
						<path class="st0" d="M77.75,232.37c-0.19,0.59-0.5,1.19-1.05,1.56c-0.54,0.38-1.21,0.5-1.85,0.51
							c-1.29,0.02-2.55-0.26-3.77-0.56c-2.43-0.64-4.86-1.35-7.32-1.37c-1.22,0-2.43,0.18-3.59,0.54c-1.14,0.37-2.29,0.92-3.41,1.46
							c-2.24,1.1-4.38,2.4-6.55,3.69c-1.09,0.63-2.2,1.25-3.32,1.84c-0.56,0.29-1.1,0.58-1.61,0.9c-0.5,0.31-1.01,0.72-1.18,1.06
							c-0.05,0.14-0.03,0.18,0.12,0.34c0.15,0.14,0.41,0.28,0.68,0.38c0.53,0.22,1.14,0.35,1.74,0.47c1.21,0.22,2.45,0.38,3.69,0.47
							c2.48,0.15,4.99,0.02,7.48-0.3c2.49-0.28,4.96-0.77,7.44-1.26c-4.83,1.4-9.83,2.47-14.95,2.33c-1.28-0.04-2.55-0.16-3.81-0.39
							c-0.63-0.13-1.27-0.25-1.9-0.5c-0.32-0.12-0.64-0.26-0.96-0.54c-0.08-0.05-0.15-0.15-0.22-0.25c-0.07-0.1-0.14-0.19-0.17-0.33
							c-0.09-0.26-0.05-0.53,0.03-0.76c0.4-0.8,0.98-1.13,1.52-1.52c0.55-0.36,1.12-0.66,1.67-0.96c1.1-0.59,2.18-1.22,3.26-1.86
							c2.18-1.25,4.36-2.55,6.66-3.64c1.16-0.54,2.29-1.07,3.55-1.47c1.25-0.39,2.57-0.53,3.86-0.49c2.6,0.11,5.04,0.94,7.44,1.66
							c1.19,0.37,2.4,0.72,3.64,0.77c0.61,0.02,1.24-0.06,1.77-0.38C77.15,233.51,77.51,232.95,77.75,232.37z"/>
					</g>
					<g>
						<path class="st0" d="M65.04,242.21c0.94-0.17,1.75-0.63,2.4-1.29c0.34-0.31,0.69-0.65,1.12-0.94c0.43-0.27,0.86-0.47,1.3-0.67
							c1.77-0.77,3.62-1.26,5.49-1.64c0.97-0.18,1.92-0.23,2.84-0.33c0.46-0.04,0.92-0.1,1.35-0.19c0.42-0.08,0.86-0.25,1.03-0.43
							c0.13-0.05-0.01-0.53-0.25-0.88c-0.23-0.37-0.54-0.75-0.82-1.09c-0.57-0.7-1.42-1.27-1.84-2.14c0.61,0.73,1.44,1.15,2.19,1.79
							c0.36,0.34,0.69,0.66,1.01,1.06c0.16,0.2,0.3,0.41,0.41,0.69c0.11,0.25,0.18,0.67-0.06,1.02c-0.45,0.55-0.98,0.68-1.45,0.82
							c-0.49,0.13-0.97,0.21-1.44,0.28c-0.95,0.13-1.88,0.19-2.77,0.37c-1.82,0.34-3.64,0.79-5.39,1.38
							c-0.43,0.15-0.87,0.32-1.26,0.51c-0.39,0.19-0.75,0.48-1.14,0.75C66.96,241.86,65.99,242.27,65.04,242.21z"/>
					</g>
					<g>
						<path class="st0" d="M43.8,242.51c-0.34,0.37-0.69,0.64-0.9,0.95c-0.21,0.31-0.24,0.55-0.17,0.87
							c0.05,0.33,0.23,0.71,0.39,1.12c0.16,0.41,0.35,0.86,0.39,1.36c-0.4-0.29-0.74-0.58-1.05-0.95c-0.31-0.36-0.58-0.79-0.71-1.35
							c-0.05-0.28-0.03-0.61,0.07-0.9c0.13-0.29,0.31-0.54,0.54-0.7C42.8,242.57,43.31,242.5,43.8,242.51z"/>
					</g>
					<g>
						<path class="st0" d="M43.6,246.81c3.26-0.44,6.57-0.08,9.8-0.27c3.25-0.24,6.52-0.4,9.72-0.86c1.59-0.24,3.23-0.49,4.76-0.89
							c0.76-0.21,1.51-0.46,2.15-0.86c0.69-0.44,1.42-0.87,2.2-1.2c1.57-0.67,3.22-0.92,4.83-1.18c1.62-0.23,3.24-0.5,4.86-0.71
							c-1.59,0.43-3.18,0.79-4.77,1.19c-1.59,0.36-3.2,0.7-4.61,1.4c-0.71,0.35-1.37,0.78-2.05,1.24c-0.74,0.49-1.55,0.79-2.36,1.03
							c-1.63,0.46-3.23,0.7-4.87,0.97c-3.28,0.45-6.56,0.58-9.84,0.64c-1.66,0.01-3.3-0.12-4.93-0.24
							C46.86,246.91,45.24,246.8,43.6,246.81z"/>
					</g>
					<g>
						<path class="st0" d="M82.11,240.8c0.23-0.39,0.45-0.74,0.46-1c0.01-0.23-0.1-0.44-0.31-0.72c-0.19-0.28-0.46-0.57-0.7-0.9
							c-0.25-0.32-0.5-0.68-0.64-1.13c0.43,0.15,0.8,0.32,1.16,0.55c0.36,0.22,0.69,0.5,0.99,0.89c0.13,0.2,0.26,0.43,0.34,0.7
							c0.05,0.28,0.06,0.61-0.1,0.87C83.03,240.58,82.55,240.75,82.11,240.8z"/>
					</g>
					<g>
						<path class="st0" d="M63.95,243.7c2.28-1.05,4.41-2.26,6.73-3.25c2.3-0.97,4.84-1.73,7.37-1.48c-2.46,0.55-4.71,1.42-6.98,2.4
							c-1.14,0.47-2.28,0.98-3.46,1.4C66.43,243.2,65.21,243.57,63.95,243.7z"/>
					</g>
					<g>
						<path class="st0" d="M49.36,237.74c2.48-0.19,4.97-0.34,7.48-0.03c2.49,0.31,4.89,0.84,7.32,0.92
							c1.22,0.08,2.41,0.04,3.59-0.18c1.18-0.21,2.38-0.59,3.62-0.8c1.23-0.2,2.45-0.45,3.72-0.51c1.25-0.04,2.58,0.11,3.65,0.78
							c-1.16-0.46-2.41-0.48-3.61-0.29c-1.2,0.16-2.4,0.48-3.6,0.78c-1.18,0.3-2.35,0.69-3.6,0.97c-1.26,0.27-2.56,0.32-3.82,0.25
							c-2.53-0.11-4.99-0.69-7.39-1.16C54.32,238.01,51.83,237.96,49.36,237.74z"/>
					</g>
					<g>
						<path class="st0" d="M54.42,235.95c1.2-0.44,2.48-0.41,3.7-0.21c0.61,0.12,1.22,0.28,1.79,0.54c0.57,0.25,1.14,0.58,1.56,1.08
							c-1.23-0.25-2.36-0.42-3.52-0.63C56.78,236.5,55.63,236.31,54.42,235.95z"/>
					</g>
					<g>
						<path class="st0" d="M57.2,235.1c1.05-0.39,2.17-0.3,3.2-0.07c1.03,0.26,2.04,0.67,2.85,1.44c-1.11-0.03-2.09-0.24-3.08-0.46
							C59.18,235.75,58.23,235.5,57.2,235.1z"/>
					</g>
					<g>
						<path class="st0" d="M60.27,234.08c0.81-0.24,1.56-0.23,2.32-0.1c0.38,0.08,0.75,0.18,1.11,0.36c0.36,0.18,0.72,0.42,0.94,0.8
							c-0.43-0.02-0.78-0.02-1.15-0.05c-0.37-0.02-0.72-0.07-1.09-0.13C61.69,234.81,60.94,234.61,60.27,234.08z"/>
					</g>
					<g>
						<path class="st0" d="M63.15,233.14c1.36,0.18,2.71,0.51,3.97,1.12c0.62,0.32,1.22,0.66,1.72,1.24
							c0.41,0.62,0.62,1.26,1.03,1.76c0.38,0.52,0.92,0.86,1.54,0.95c0.6,0.08,1.32,0,1.85-0.2c0.11-0.06,0.21-0.13,0.22-0.18
							c0.03-0.03,0.01-0.1-0.04-0.21c-0.11-0.22-0.35-0.45-0.59-0.65c-0.5-0.41-1.07-0.77-1.65-1.1c-1.17-0.66-2.41-1.23-3.65-1.75
							c-0.62-0.25-1.26-0.48-1.89-0.66c-0.58-0.16-1.3-0.2-1.95-0.27c-2.68-0.19-5.41,0-8.08,0.42c-1.32,0.21-2.71,0.44-3.93,0.84
							c-1.26,0.45-2.52,0.99-3.72,1.59c-0.6,0.3-1.19,0.62-1.74,0.99c-0.27,0.18-0.53,0.38-0.73,0.58c-0.11,0.1-0.18,0.21-0.21,0.28
							c-0.01,0.08-0.01,0.01-0.02,0.02c0.07,0.08,0.39,0.2,0.69,0.24c0.31,0.06,0.64,0.08,0.95,0.08c0.63,0.02,1.28-0.09,1.91-0.26
							c2.57-0.71,4.82-2.36,7.28-3.62c1.27-0.64,2.66-0.89,4.02-1.05c1.37-0.15,2.76-0.14,4.12-0.02c-1.37-0.02-2.74,0.06-4.08,0.28
							c-1.34,0.23-2.68,0.56-3.83,1.23c-2.36,1.31-4.56,3.06-7.29,3.93c-0.68,0.21-1.39,0.36-2.13,0.36
							c-0.37,0.01-0.73-0.02-1.1-0.08c-0.36-0.08-0.75-0.11-1.19-0.5c-0.25-0.25-0.26-0.7-0.14-0.94c0.11-0.24,0.25-0.41,0.38-0.55
							c0.28-0.28,0.57-0.51,0.86-0.71c0.59-0.41,1.2-0.74,1.82-1.07c1.24-0.64,2.5-1.2,3.82-1.68c1.38-0.46,2.72-0.69,4.1-0.92
							c2.74-0.4,5.53-0.57,8.31-0.34c0.7,0.08,1.37,0.12,2.11,0.32c0.69,0.2,1.34,0.45,1.98,0.71c1.28,0.54,2.52,1.16,3.71,1.89
							c0.59,0.37,1.18,0.76,1.72,1.24c0.27,0.25,0.54,0.5,0.73,0.9c0.05,0.09,0.08,0.23,0.1,0.35c0,0.14-0.01,0.29-0.08,0.42
							c-0.14,0.27-0.36,0.38-0.55,0.47c-0.75,0.25-1.45,0.29-2.2,0.18c-0.74-0.13-1.43-0.6-1.83-1.21c-0.42-0.59-0.62-1.3-0.94-1.84
							c-0.37-0.48-0.96-0.89-1.54-1.22C65.81,233.84,64.49,233.43,63.15,233.14z"/>
					</g>
					<g>
						<path class="st0" d="M61.17,232.33c0.33-0.6,0.58-0.94,0.8-1.34c0.23-0.38,0.41-0.78,0.79-1.35c0.42,0.54,0.4,1.27,0.07,1.85
							C62.49,232.08,61.84,232.45,61.17,232.33z"/>
					</g>
					<g>
						<path class="st0" d="M78.24,233.35c-0.74-0.2-1.29-0.89-1.39-1.69c-0.03-0.4,0.01-0.73,0.11-1.09
							c0.05-0.18,0.13-0.35,0.24-0.52c0.06-0.08,0.12-0.17,0.22-0.24c0.09-0.08,0.25-0.11,0.32-0.03c-0.16,0.1-0.07,0.25-0.07,0.4
							l0.07,0.46c0.05,0.3,0.07,0.64,0.1,0.9C77.9,232.08,78.07,232.59,78.24,233.35z"/>
					</g>
					<g>
						<path class="st0" d="M158.46,234.37c1.35,0.2,2.69,0.03,3.95-0.39c1.27-0.39,2.48-0.96,3.75-1.48
							c1.26-0.53,2.61-0.95,4.03-1.05c1.43-0.1,2.87,0.22,4.17,0.78c0.64,0.3,1.28,0.66,1.83,1.14c0.55,0.47,1.02,1.02,1.44,1.54
							c0.81,1.07,1.74,1.88,2.94,2.42c1.17,0.53,2.53,0.88,3.77,1.45c1.25,0.56,2.44,1.46,3.02,2.7c-0.4-0.54-0.87-1.03-1.42-1.4
							c-0.54-0.37-1.16-0.63-1.79-0.84c-1.25-0.47-2.56-0.7-3.89-1.2c-1.33-0.45-2.51-1.47-3.36-2.52
							c-0.84-1.06-1.75-1.88-2.95-2.37c-1.17-0.51-2.43-0.81-3.71-0.75c-1.28,0.03-2.55,0.41-3.82,0.82
							c-1.27,0.42-2.54,0.93-3.89,1.23C161.18,234.73,159.75,234.8,158.46,234.37z"/>
					</g>
					<g>
						<path class="st0" d="M187.24,241.49c-0.41,0.63-1.03,1.09-1.7,1.44c-0.66,0.36-1.38,0.6-2.11,0.81
							c-1.46,0.38-2.95,0.57-4.43,0.7c-2.98,0.24-5.94,0.26-8.93,0.14c-1.49-0.09-2.99-0.23-4.47-0.51c-1.47-0.3-2.97-0.7-4.3-1.52
							c-0.66-0.41-1.27-0.94-1.72-1.6c-0.45-0.66-0.71-1.43-0.79-2.19c-0.08-0.75-0.05-1.54,0.1-2.26c0.13-0.71,0.1-1.48-0.44-2.04
							c0.29,0.23,0.51,0.56,0.62,0.93c0.1,0.37,0.1,0.76,0.08,1.13c-0.07,0.74-0.03,1.45,0.12,2.16c0.13,0.7,0.4,1.36,0.82,1.9
							c0.42,0.54,0.98,0.97,1.6,1.3c1.25,0.65,2.65,1.03,4.08,1.26c1.43,0.24,2.89,0.37,4.35,0.44c1.46,0.09,2.93,0.1,4.41,0.12
							c1.48,0.03,2.95,0.01,4.42-0.02c1.47-0.04,2.93-0.15,4.37-0.41C184.75,243.01,186.22,242.59,187.24,241.49z"/>
					</g>
					<g>
						<path class="st0" d="M187.24,241.36c0.41-0.12,0.88-0.1,1.3,0.14c0.43,0.23,0.72,0.7,0.83,1.14c0.11,0.45,0.1,0.89,0,1.29
							c-0.09,0.41-0.25,0.75-0.44,1.14c-0.22-0.39-0.27-0.81-0.34-1.17c-0.07-0.37-0.1-0.71-0.19-1c-0.07-0.3-0.18-0.55-0.36-0.79
							C187.86,241.86,187.58,241.64,187.24,241.36z"/>
					</g>
					<g>
						<path class="st0" d="M188.73,245.15c-0.97,0.69-2.11,1.13-3.24,1.51c-1.16,0.31-2.33,0.56-3.52,0.72
							c-2.37,0.33-4.77,0.36-7.16,0.27c-2.38-0.12-4.76-0.37-7.1-0.84c-1.17-0.24-2.34-0.49-3.48-0.86c-1.13-0.4-2.24-0.9-3.19-1.62
							c1.06,0.53,2.17,0.92,3.32,1.15c1.14,0.27,2.31,0.43,3.47,0.57c2.34,0.28,4.68,0.5,7.03,0.6c2.35,0.11,4.7,0.11,7.03-0.04
							C184.22,246.45,186.57,246.13,188.73,245.15z"/>
					</g>
					<g>
						<path class="st0" d="M159.05,240.04c0.47,0.81,0.82,1.55,1.14,2.32c0.15,0.38,0.31,0.76,0.47,1.12
							c0.18,0.36,0.31,0.71,0.67,1.04c-0.5,0.09-0.99-0.25-1.31-0.59c-0.34-0.35-0.57-0.76-0.76-1.18c-0.17-0.43-0.3-0.86-0.35-1.32
							C158.88,240.97,158.87,240.49,159.05,240.04z"/>
					</g>
					<g>
						<path class="st0" d="M159.25,238.63c0.86-0.51,1.95-0.39,2.9-0.2c0.97,0.23,1.85,0.49,2.79,0.58
							c1.86,0.25,3.62-0.29,5.64-0.56c2-0.14,3.92,0.06,5.84,0.21c0.96,0.07,1.91,0.15,2.86,0.17c0.95,0.03,1.91,0.01,2.81-0.37
							c-0.79,0.59-1.83,0.73-2.78,0.86c-0.97,0.1-1.95,0.12-2.92,0.12c-1.93,0.01-3.87-0.15-5.72,0c-0.88,0.07-1.87,0.32-2.84,0.42
							c-0.98,0.11-2.02,0.12-3-0.09c-0.99-0.16-1.93-0.55-2.8-0.88C161.13,238.57,160.19,238.34,159.25,238.63z"/>
					</g>
					<g>
						<path class="st0" d="M168.18,238.21c0.34-0.4,0.81-0.66,1.27-0.85c0.46-0.2,0.95-0.31,1.44-0.39
							c0.49-0.06,0.99-0.09,1.49-0.04c0.5,0.05,1,0.16,1.46,0.42c-0.99,0.3-1.88,0.46-2.81,0.6
							C170.1,238.09,169.21,238.16,168.18,238.21z"/>
					</g>
					<g>
						<path class="st0" d="M166.89,237.01c0.89-0.72,1.94-1.12,3.03-1.34c1.09-0.19,2.25-0.2,3.32,0.24
							c-1.09,0.36-2.1,0.54-3.14,0.75C169.08,236.83,168.05,237.04,166.89,237.01z"/>
					</g>
					<g>
						<path class="st0" d="M166,236.12c0.44-0.4,0.97-0.66,1.51-0.86c0.54-0.2,1.1-0.31,1.66-0.39c1.12-0.13,2.28-0.1,3.38,0.31
							c-1.11,0.38-2.18,0.53-3.26,0.68C168.21,235.99,167.17,236.08,166,236.12z"/>
					</g>
					<g>
						<path class="st0" d="M168.88,233.95c-2.66-0.49-5.36,0.2-7.83,1.13c-1.23,0.48-2.49,1.03-3.48,1.8
							c-0.44,0.37-0.84,0.98-0.94,1.48c-0.01,0.27-0.03,0.26,0.2,0.31c0.22,0.04,0.55-0.02,0.85-0.08c1.25-0.29,2.33-0.99,3.41-1.77
							c1.08-0.82,2.3-1.51,3.49-2.14c1.22-0.63,2.49-1.16,3.82-1.55c1.35-0.37,2.69-0.58,4.04-0.76c2.7-0.31,5.41-0.46,8.15-0.27
							c0.68,0.05,1.37,0.14,2.06,0.28c0.68,0.15,1.38,0.33,2.04,0.77c0.32,0.23,0.65,0.57,0.76,1.05c0.09,0.49-0.07,0.91-0.24,1.26
							c-0.22,0.38-0.56,0.66-0.91,0.84c-0.36,0.16-0.72,0.26-1.08,0.31c-5.65,0.29-10.6-2.33-16.01-2.48
							c1.34-0.16,2.7,0.03,4.03,0.23c1.33,0.2,2.66,0.46,3.98,0.7c1.32,0.25,2.64,0.5,3.96,0.68c1.31,0.17,2.67,0.32,3.91,0.11
							c0.62-0.1,1.17-0.35,1.38-0.78c0.11-0.25,0.19-0.49,0.15-0.68c-0.05-0.19-0.2-0.36-0.42-0.52c-0.98-0.59-2.38-0.74-3.67-0.84
							c-2.64-0.16-5.32,0.02-7.96,0.35c-1.32,0.16-2.65,0.35-3.9,0.69c-1.26,0.35-2.49,0.85-3.66,1.44
							c-1.19,0.61-2.33,1.24-3.4,2.04c-1.08,0.79-2.34,1.55-3.75,1.82c-0.36,0.06-0.71,0.14-1.15,0.05
							c-0.21-0.03-0.49-0.16-0.65-0.42c-0.16-0.27-0.13-0.53-0.09-0.74c0.09-0.42,0.28-0.73,0.49-1.03
							c0.21-0.29,0.44-0.58,0.74-0.81c1.16-0.85,2.43-1.33,3.72-1.78c1.29-0.42,2.62-0.74,3.97-0.9
							C166.19,233.57,167.58,233.56,168.88,233.95z"/>
					</g>
					<g>
						<path class="st0" d="M158.54,234.56c-0.38-0.28-0.59-0.73-0.74-1.13c-0.09-0.2-0.13-0.4-0.2-0.59l-0.09-0.28
							c-0.04-0.12-0.03-0.06-0.08-0.15c-0.17-0.27-0.46-0.59-0.69-0.95c-0.12-0.18-0.23-0.37-0.33-0.58
							c-0.04-0.11-0.09-0.21-0.12-0.34c-0.02-0.1-0.05-0.31,0.09-0.36c-0.04,0.11,0.08,0.15,0.15,0.22
							c0.08,0.06,0.17,0.11,0.25,0.17c0.17,0.11,0.35,0.23,0.52,0.36c0.35,0.26,0.66,0.52,0.96,0.95c0.06,0.08,0.17,0.34,0.18,0.42
							c0.03,0.11,0.05,0.22,0.07,0.33c0.02,0.22,0.05,0.43,0.04,0.65C158.57,233.71,158.53,234.1,158.54,234.56z"/>
					</g>
					<g>
						<path class="st0" d="M174.93,232.93c-0.02-0.33-0.09-0.54-0.13-0.78c-0.05-0.24-0.06-0.49-0.05-0.75
							c0.02-0.26,0.07-0.54,0.2-0.82c0.12-0.27,0.33-0.55,0.65-0.66l0.12,0.8c0.04,0.24,0.04,0.48,0.03,0.74
							c-0.03,0.25-0.06,0.53-0.18,0.8C175.46,232.52,175.26,232.84,174.93,232.93z"/>
					</g>
					<path class="st4" d="M138.89,138.57c4.01,3.11,20.2,3.26,27.31,3.77"/>
				</g>
			</g>
		</g>
	</g>
</g>
</svg>
